<?xml version="1.0" encoding="utf-8"?>
<!-- Generator: Adobe Illustrator 22.0.0, SVG Export Plug-In . SVG Version: 6.00 Build 0)  -->
<svg version="1.1" id="_x39_2" xmlns="http://www.w3.org/2000/svg" xmlns:xlink="http://www.w3.org/1999/xlink" x="0px" y="0px"
	 viewBox="0 0 100 100" style="enable-background:new 0 0 100 100;" xml:space="preserve">
<style type="text/css">
	.st0{fill:#FFFFFF;stroke:#FFFFFF;stroke-miterlimit:10;}
</style>
<g>
	<g>
		<g id="XMLID_18782_">
			<g id="XMLID_18796_">
				<path class="st0" d="M19.3,83.8c-0.4,0-0.7-0.3-0.7-0.7V11.4c0-2.2,1.8-4,4-4h54.7c2.2,0,4,1.8,4,4v65c0,0.4-0.3,0.7-0.7,0.7
					H26.8c0,0-0.1,0-0.1,0c0,0-0.1,0-0.1,0l0,0c0,0,0,0,0,0l-0.6,0l-0.5,0.1c0,0,0,0,0,0l-0.1,0c0,0,0,0,0,0l-0.2,0c0,0,0,0,0,0
					c0,0-0.1,0-0.1,0c0,0,0,0,0,0c0,0-0.1,0-0.1,0c0,0,0,0-0.1,0c0,0-0.1,0-0.1,0c0,0,0,0,0,0l-0.2,0.1c0,0,0,0,0,0L24,77.8
					c0,0,0,0,0,0l-0.2,0.1c0,0,0,0,0,0L23.5,78c-0.1,0-0.1,0.1-0.2,0.1l-0.1,0.1c0,0,0,0,0,0L23,78.3c0,0,0,0,0,0l-0.2,0.1
					c0,0,0,0,0,0l-0.1,0.1c0,0,0,0,0,0l-0.1,0.1L22.1,79c0,0,0,0,0,0L22,79.1c0,0,0,0,0,0l0,0c-0.2,0.1-0.3,0.3-0.4,0.5c0,0,0,0,0,0
					l-0.1,0.1c0,0,0,0,0,0l0,0l-0.1,0.1c0,0,0,0,0,0l-0.2,0.2c0,0,0,0,0,0l-0.1,0.1c0,0,0,0,0,0L21,80.4c0,0,0,0,0,0l-0.1,0.1
					c0,0,0,0,0,0c-0.1,0.2-0.3,0.5-0.4,0.8l-0.1,0.1c0,0,0,0,0,0.1L20.2,82l0,0.1c0,0,0,0,0,0l0,0.2c-0.1,0.3-0.1,0.6-0.2,0.9
					C19.9,83.5,19.6,83.8,19.3,83.8z M22.6,8.8c-1.4,0-2.6,1.2-2.6,2.6v68c0,0,0,0,0,0l0.1-0.1c0,0,0,0,0,0l0.2-0.3c0,0,0,0,0-0.1
					l0.1-0.1c0,0,0,0,0-0.1c0.2-0.2,0.4-0.4,0.6-0.6c0,0,0,0,0,0l0.1-0.1c0,0,0,0,0,0l0.4-0.4c0,0,0,0,0,0l0.1-0.1c0,0,0,0,0,0
					l0.1-0.1c0,0,0,0,0,0l0.1-0.1c0,0,0,0,0,0l0.2-0.1c0,0,0,0,0,0l0.2-0.1c0,0,0,0,0,0l0,0c0.1,0,0.2-0.1,0.2-0.1l0,0c0,0,0,0,0,0
					l0.2-0.1c0,0,0,0,0,0l0.2-0.1c0,0,0,0,0,0l0.1-0.1c0,0,0,0,0,0l0.2-0.1c0,0,0,0,0,0l0.1,0c0,0,0,0,0,0l0.3-0.1c0,0,0,0,0,0
					c0,0,0.1,0,0.1,0c0,0,0.1,0,0.1,0c0,0,0.1,0,0.1,0c0,0,0,0,0.1,0c0,0,0.1,0,0.1,0c0,0,0,0,0,0l0.2,0c0,0,0,0,0,0l0.1,0
					c0,0,0,0,0,0l0.1,0c0,0,0,0,0,0l0.9-0.1l0.4,0c0,0,0.1,0,0.1,0c0,0,0.1,0,0.1,0h53.1V11.4c0-1.4-1.2-2.6-2.6-2.6H22.6z"/>
			</g>
			<g id="XMLID_18795_">
				<path class="st0" d="M19.3,83.8C19.3,83.8,19.2,83.8,19.3,83.8c-0.4,0-0.7-0.3-0.7-0.7V11.4c0-2.2,1.8-4,4-4H34
					c0.4,0,0.7,0.3,0.7,0.7v68.4c0,0.4-0.3,0.7-0.7,0.7h-7.1c-3.5,0-6.4,2.6-6.9,6C19.9,83.5,19.6,83.8,19.3,83.8z M22.6,8.8
					c-1.4,0-2.6,1.2-2.6,2.6v68c1.5-2.2,4-3.6,6.9-3.6h6.4v-67H22.6z"/>
			</g>
			<g id="XMLID_18794_">
				<path class="st0" d="M76.2,92.4H26.8c-4.6,0-8.3-3.7-8.3-8.3c0-4.6,3.7-8.3,8.3-8.3h49.4c0.4,0,0.7,0.3,0.7,0.7v15.3
					C76.9,92.1,76.6,92.4,76.2,92.4z M26.8,77.1c-3.8,0-6.9,3.1-6.9,6.9c0,3.8,3.1,6.9,6.9,6.9h48.7V77.1H26.8z"/>
			</g>
			<g id="XMLID_18793_">
				<path class="st0" d="M76.2,84.8h-48c-0.4,0-0.7-0.3-0.7-0.7c0-0.4,0.3-0.7,0.7-0.7h48c0.4,0,0.7,0.3,0.7,0.7
					C76.9,84.5,76.6,84.8,76.2,84.8z"/>
			</g>
			<g id="XMLID_18792_">
				<path class="st0" d="M28.2,90.1c-0.1,0-0.2,0-0.3-0.1c-0.2-0.1-0.4-0.4-0.4-0.6v-5.3c0-0.4,0.3-0.7,0.7-0.7h5.9
					c0.4,0,0.7,0.3,0.7,0.7v5.3c0,0.3-0.1,0.5-0.4,0.6c-0.2,0.1-0.5,0.1-0.7,0L31,88.3L28.6,90C28.5,90.1,28.3,90.1,28.2,90.1z
					 M30.9,86.7c0.1,0,0.3,0,0.4,0.1l2.1,1.3v-3.4h-4.5V88l1.6-1.2C30.6,86.8,30.8,86.7,30.9,86.7z"/>
			</g>
			<g id="XMLID_18791_">
				<path class="st0" d="M62.4,66.4H51.1c-0.4,0-0.7-0.3-0.7-0.7V40.9H42c-0.4,0-0.7-0.3-0.7-0.7V28.9c0-0.4,0.3-0.7,0.7-0.7h8.4
					v-4.1c0-0.4,0.3-0.7,0.7-0.7h11.3c0.4,0,0.7,0.3,0.7,0.7v4.1h8.4c0.4,0,0.7,0.3,0.7,0.7v11.3c0,0.4-0.3,0.7-0.7,0.7h-8.4v24.8
					C63.1,66,62.8,66.4,62.4,66.4z M51.8,65h9.9V40.2c0-0.4,0.3-0.7,0.7-0.7h8.4v-9.9h-8.4c-0.4,0-0.7-0.3-0.7-0.7v-4.1h-9.9v4.1
					c0,0.4-0.3,0.7-0.7,0.7h-8.4v9.9h8.4c0.4,0,0.7,0.3,0.7,0.7V65z"/>
			</g>
		</g>
	</g>
</g>
</svg>
