<?xml version="1.0" encoding="utf-8"?>
<!-- Generator: Adobe Illustrator 22.0.0, SVG Export Plug-In . SVG Version: 6.00 Build 0)  -->
<svg version="1.1" id="Objects" xmlns="http://www.w3.org/2000/svg" xmlns:xlink="http://www.w3.org/1999/xlink" x="0px" y="0px"
	 viewBox="0 0 100 100" style="enable-background:new 0 0 100 100;" xml:space="preserve">
<style type="text/css">
	.st0{fill:none;stroke:#000000;stroke-width:0.75;stroke-miterlimit:10;}
</style>
<g>
	<path class="st0" d="M48.6,20.4c0,1.6-1.3,2.9-2.9,2.9c-1.6,0-2.9-1.3-2.9-2.9c0-1.6,1.3-2.9,2.9-2.9
		C47.4,17.5,48.6,18.8,48.6,20.4z"/>
	<path class="st0" d="M48.6,80c0,1.6-1.3,2.9-2.9,2.9c-1.6,0-2.9-1.3-2.9-2.9s1.3-2.9,2.9-2.9C47.4,77.2,48.6,78.5,48.6,80z"/>
	<path class="st0" d="M18.9,50.3c0,1.6-1.3,2.9-2.9,2.9c-1.6,0-2.9-1.3-2.9-2.9c0-1.6,1.3-2.9,2.9-2.9
		C17.7,47.5,18.9,48.7,18.9,50.3z"/>
	<g>
		<g>
			<path d="M79,65.2c-6.4,13.4-19.7,22.1-34.7,21.5c-13.7-0.5-26.2-9-31.9-21.5C0,37.4,26.9,6.8,56.1,15.4
				c15.5,4.6,25.8,19,26.1,34.9c0,1.9,3,1.9,3,0c-0.3-15.3-8.9-29.4-23-35.8c-13.6-6.2-29.9-4.1-41.4,5.4C9,29.5,3.8,45.4,7.6,60.2
				C11.3,74.6,23.3,86,37.9,88.9c18,3.6,35.9-5.8,43.7-22.3C82.4,65,79.9,63.4,79,65.2L79,65.2z"/>
		</g>
	</g>
	<g>
		<g>
			<g>
				<path d="M40.2,36c1.6,4.7,3.2,9.4,4.8,14.1c0.6,1.8,3.5,1,2.9-0.8c-1.6-4.7-3.2-9.4-4.8-14.1C42.5,33.3,39.6,34.1,40.2,36
					L40.2,36z"/>
			</g>
		</g>
		<g>
			<g>
				<path d="M28.3,65.5c6.3-4.8,12.6-9.7,18.9-14.5c1.5-1.2,0-3.8-1.5-2.6c-6.3,4.8-12.6,9.7-18.9,14.5
					C25.2,64.1,26.7,66.7,28.3,65.5L28.3,65.5z"/>
			</g>
		</g>
	</g>
	<g>
		<g>
			<path d="M92.1,44.9C89,47.9,85.9,51,82.8,54c0.5,0,1.1,0,1.6,0c-3.1-3.1-6.2-6.1-9.3-9.2c-1-1-2.6,0.6-1.6,1.6
				c3.1,3.1,6.2,6.1,9.3,9.2c0.4,0.4,1.2,0.4,1.6,0c3.1-3.1,6.2-6.1,9.3-9.2C94.7,45.4,93.1,43.8,92.1,44.9L92.1,44.9z"/>
		</g>
	</g>
</g>
</svg>
