<svg id="Fondo" xmlns="http://www.w3.org/2000/svg" xmlns:xlink="http://www.w3.org/1999/xlink" viewBox="0 0 661.54 422.52"><defs><style>.cls-1{fill:#c20b19;}.cls-2{fill:#4470b4;}.cls-3{fill:#ffed00;}.cls-4{fill:#80207e;}.cls-10,.cls-5,.cls-6{fill:#fff;}.cls-10,.cls-11,.cls-12,.cls-13,.cls-14,.cls-6,.cls-7,.cls-8,.cls-9{stroke:#efca2d;stroke-miterlimit:10;}.cls-6{stroke-width:3px;}.cls-7{fill:#96673b;}.cls-8{fill:#793e1c;}.cls-9{fill:#7f5714;}.cls-11{fill:url(#linear-gradient);}.cls-12{fill:url(#Amarillo);}.cls-13{fill:#892612;}.cls-14{fill:none;}.cls-15{fill:#fbeba2;}</style><linearGradient id="linear-gradient" x1="337.04" y1="203.15" x2="337.04" y2="153.82" gradientUnits="userSpaceOnUse"><stop offset="0" stop-color="#b48425"/><stop offset="0" stop-color="#b68627"/><stop offset="0" stop-color="#bc8f2f"/><stop offset="0" stop-color="#c69d3d"/><stop offset="0" stop-color="#d4b050"/><stop offset="0" stop-color="#e6ca69"/></linearGradient><linearGradient id="Amarillo" x1="241" y1="208.09" x2="433.07" y2="208.09" gradientUnits="userSpaceOnUse"><stop offset="0" stop-color="#f8f5dd"/><stop offset="0.5" stop-color="#f6eeae"/><stop offset="1" stop-color="#eee7b1"/></linearGradient></defs><title>Logo-Casa_de_Adoradores-P11-SVG-01</title><path class="cls-1" d="M54.53,235.94c0,47.84,30.59,91.39,80.67,124L284.09,58.48C152.12,78.69,54.53,150.47,54.53,235.94Z" transform="translate(-27.09 -26.7)"/><path class="cls-2" d="M356.22,52.79a497,497,0,0,0-75.43,5.68L132.51,360c36,23.55,82.1,41.4,134.18,51.05L439.45,59.74A494.45,494.45,0,0,0,356.22,52.79Z" transform="translate(-27.09 -26.7)"/><path class="cls-3" d="M602.44,106.6c-43.62-23.83-99.35-41.18-162-49.34l-192,366.37a637.42,637.42,0,0,0,103.76,6.09,644.92,644.92,0,0,0,84.77-7.38Z" transform="translate(-27.09 -26.7)"/><path class="cls-4" d="M676.91,234.21c0-48-31.22-91.64-82.29-124.3L443.38,411.76C577.59,391.68,676.91,319.8,676.91,234.21Z" transform="translate(-27.09 -26.7)"/><ellipse class="cls-5" cx="371.69" cy="113.83" rx="25" ry="29.03" transform="translate(-27.93 -23.94) rotate(-0.42)"/><path class="cls-5" d="M389.94,151.57c-10.78,3.94-33.32,2.44-46.72-.71-13.94-3.28-38.45-26.56-55.13-36.49-10.79-6.42-21,3.63-10.66,11.31,14.16,10.53,37.73,35.88,50.5,47.67,9.26,8.55,9.25,6.74,9.33,17.62,0.12,16.34-6.47,63.27-6.47,63.27l62.31-1.06s-0.82-52.52,2.33-61.88c6.11-18.19,39.69-47.62,56.1-67.25,5.85-7-3.25-16.61-10.56-10.81C420.69,129.34,405.46,145.89,389.94,151.57Z" transform="translate(-27.09 -26.7)"/><path id="Anillo-2" data-name="Anillo" class="cls-6" d="M357.86,28.2C176,28.2,28.59,122.11,28.59,238S176,447.72,357.86,447.72,687.13,353.81,687.13,238,539.71,28.2,357.86,28.2Zm4.27,375.33C206.37,403.52,83.9,332.18,83.9,238s120.22-164.3,276-164.3S634.55,143.74,634.55,238,517.88,403.52,362.13,403.52Z" transform="translate(-27.09 -26.7)"/><polygon class="cls-7" points="174.16 127.2 169.78 122 240.87 122 254.73 148.81 250.4 148.81 239.46 127.14 174.16 127.2"/><polygon class="cls-8" points="174.81 293.85 174.16 127.2 239.46 127.14 239.46 293.85 174.81 293.85"/><polygon class="cls-9" points="250.4 148.81 239.46 127.14 239.46 282.16 250.51 282.16 250.4 148.81"/><path class="cls-10" d="M201.66,213.67H164.87v24.69c7.63,0,5.85,10.15,5.85,10.15v60.67h30.54Z" transform="translate(-27.09 -26.7)"/><polygon class="cls-9" points="433.07 282.48 433.07 127.2 415.2 148.81 416.18 282.16 433.07 282.48"/><polygon class="cls-11" points="241.08 153.81 433.07 153.81 433.07 203.15 241 203.15 241.08 153.81"/><polygon class="cls-12" points="415.85 213.94 250.51 213.94 241 202.23 433.07 202.23 415.85 213.94"/><polyline class="cls-10" points="391.08 282.48 391.17 287.35 289.49 287.35 289.49 282.16 250.51 282.16 250.51 213.94 415.85 213.94 416.18 282.16 391.41 282.56"/><path class="cls-13" d="M335.74,314.05h56.2l-1.3-53.93s-27.94-21.76-54.9-1v54.9Z" transform="translate(-27.09 -26.7)"/><polygon class="cls-8" points="433.56 126.55 498.61 126.55 498.61 293.2 433.64 293.53 433.56 126.55"/><polygon class="cls-7" points="502.91 122 498.61 126.55 433.56 126.55 415.2 148.81 410.66 148.81 432.2 121.92 502.91 122"/><polygon class="cls-10" points="240.92 108.85 230.37 108.85 230.37 113.4 224.24 113.4 224.24 108.85 210.8 108.9 210.8 113.4 203.65 113.4 203.48 108.85 189.86 108.85 190.03 113.4 181.01 113.4 181.01 108.85 169.78 108.85 169.78 113.4 169.78 122 240.87 122 254.73 148.81 254.56 142.96 254.56 138.68 240.92 108.85"/><polygon class="cls-10" points="502.85 113.56 502.85 109.01 488.35 108.92 488.15 113.55 482.46 113.55 482.55 109.01 468.91 109.01 468.8 113.4 462.81 113.56 462.81 109.09 449.75 108.92 449.53 113.45 444.39 113.56 444.47 109.01 432.2 108.92 410.57 138.09 410.66 148.81 432.2 121.92 502.91 122 502.91 113.56 502.85 113.56"/><path class="cls-14" d="M442.3,179.6" transform="translate(-27.09 -26.7)"/><path class="cls-14" d="M442.3,175.5" transform="translate(-27.09 -26.7)"/><path class="cls-10" d="M470.13,350.73c-15.72-5.18-51.62-41.47-51.62-41.47l-0.14,14.08H316.54l0.8-1.2v-0.08l100.7-.75v-4.76H317.13l-0.23-6.15s-31.39,36.1-47.27,43.26c-2.76,1.25-5.23.69-8.45,0.76-5.09.1-8-4.39-8-4.39l1,12.94s1.79,2.49,6.66,4.17a24.51,24.51,0,0,0,21.28-2.75,43.34,43.34,0,0,0,6.93-5.87V363H457.31a13.94,13.94,0,0,0,2.31,1.86c5.52,2.34,16.13,2.42,20.47,2.25,6.55-.25,10.83-5.2,10.83-5.2V350.73C486.37,352.57,479,353.65,470.13,350.73ZM314.41,326.45v0.35l107.06-.21,2.28,2.38-110.94-.21Zm-4.47,6.36h0l116.87,0.27v-0.93l2.77,2.88-120.94-.42Zm-4.43,6L432.66,340l-0.27-2.07,3.46,3.57-131.62-.95Zm-5.75,7.46,139.61,0v-1.16l3.86,3.94L299,347.8h-0.48Zm-8.71,10.16c2.19-2.34,4.2-4.64,6.43-7.35l0.25,4.54H447v-0.81l3.62,3.63H291.05Z" transform="translate(-27.09 -26.7)"/><path class="cls-10" d="M525.7,213.08h36.79v24.69c-7.63,0-5.85,10.15-5.85,10.15v60.67H526.11Z" transform="translate(-27.09 -26.7)"/><g id="Piedras-1"><path class="cls-15" d="M204.95,164.49a5.38,5.38,0,0,1,.28,1.83,2.41,2.41,0,0,0,1.84,1.67,7.08,7.08,0,0,0,2.6,0,1.52,1.52,0,0,0,1.65-1.21l1.82-5.14a2.92,2.92,0,0,0,2.48-.65,2,2,0,0,0,.36-2.42,5.58,5.58,0,0,0-4.31-1.39l-4.1.05a12.89,12.89,0,0,0-4,.47,4.36,4.36,0,0,0-2.86,2.64,2.67,2.67,0,0,0,1.52,3.3C203.17,163.93,204.42,163.66,204.95,164.49Z" transform="translate(-27.09 -26.7)"/><path class="cls-15" d="M227.5,171.65c1.37-.63,2.84-1.34,3.52-2.69,1.08-2.16-.3-5.1,1.17-7a15.89,15.89,0,0,1-5.67-.26c-1.64-.38-3.33-1-5-0.61a5.93,5.93,0,0,0-3.54,3.19,6.05,6.05,0,0,0-.79,3.68l1.9,0.23a1.2,1.2,0,0,1,.47.12,1.28,1.28,0,0,1,.44.61c0.89,1.9,2.65,3.65,4.76,3.58A7.3,7.3,0,0,0,227.5,171.65Z" transform="translate(-27.09 -26.7)"/><path class="cls-15" d="M240.42,155.66c-0.48-1-1.92-.94-3-0.66a24.35,24.35,0,0,0-4.6,1.73,1.25,1.25,0,0,1-1.07.18,4,4,0,0,1-.58-0.54,1.74,1.74,0,0,0-1.08-.24h-4.38a3.58,3.58,0,0,0,1.21,4.52,6.86,6.86,0,0,0,3.8.71,18.4,18.4,0,0,0,5.45-.63,6.59,6.59,0,0,0,4.12-3.4A2,2,0,0,0,240.42,155.66Z" transform="translate(-27.09 -26.7)"/><path class="cls-15" d="M202.23,176.42a3.64,3.64,0,0,1-.15-3.74,2.26,2.26,0,0,1,.9-1.09,2.72,2.72,0,0,1,1-.24,86.26,86.26,0,0,1,14.64-.54c0.28,1.4.41,3.19-.82,3.93a6.24,6.24,0,0,1-1.55.49,10.84,10.84,0,0,0-3.5,2.34,4.73,4.73,0,0,1-3.87,1.33,12.36,12.36,0,0,1-1.5-.6C205.62,177.63,203.38,177.87,202.23,176.42Z" transform="translate(-27.09 -26.7)"/><path class="cls-15" d="M232,178.27a11.87,11.87,0,0,0,3.09-3.56l-0.19-1.83c-3.21-.63-6.42,1.1-9.7,1.15-1.34,0-2.73-.23-4,0.24-1.65.63-2.63,2.87-1.58,4.29,0.92,1.26,2.78,1.32,4.3,1s3-1,4.57-.78a0.47,0.47,0,0,1,.49.42A3.44,3.44,0,0,0,232,178.27Z" transform="translate(-27.09 -26.7)"/><path class="cls-15" d="M244.07,159.17a4.29,4.29,0,0,1-3.09,2.65c-1.15.24-2.35,0-3.52,0.13A6.26,6.26,0,0,0,233,165a9.22,9.22,0,0,0-1.1,5.46,12.35,12.35,0,0,0,2.72.28,3,3,0,0,0,1.5-.31,1.22,1.22,0,0,0,.63-1.29c1.31-.17,2.28,1.6,3.59,1.4a2.35,2.35,0,0,0,1.35-.95,12.47,12.47,0,0,0,2.81-8.94h2.71v-1.5Z" transform="translate(-27.09 -26.7)"/><path class="cls-15" d="M253.82,168.7c1.29-.53,2.2-2,3.6-2a2.58,2.58,0,0,0,1.11-.11,1.54,1.54,0,0,0,.61-1.2,30.67,30.67,0,0,0,.26-7.21,67.46,67.46,0,0,0-8-.17l-3.17,5c-1.14,1.78-2.32,3.84-1.75,5.87q2.59,0.22,5.19.21A5.62,5.62,0,0,0,253.82,168.7Z" transform="translate(-27.09 -26.7)"/><path class="cls-15" d="M249.43,177a4,4,0,0,1-2.22,2.76c-1.32.49-2.81-.11-4.19,0.16-1.2.24-2.4,1.13-3.52,0.66a3,3,0,0,1-1.43-2.17,15.22,15.22,0,0,1-.36-5.24h3.48l0-.79a15.62,15.62,0,0,1,4.65-1.44,3.65,3.65,0,0,1,2.73.41,3.26,3.26,0,0,1,1.08,2.08A7.74,7.74,0,0,1,249.43,177Z" transform="translate(-27.09 -26.7)"/><path class="cls-15" d="M205.35,188.5a6.3,6.3,0,0,1-2.74,1.72,2.54,2.54,0,0,0,.81,3.25,6.64,6.64,0,0,0,3.48,1.06,42.5,42.5,0,0,0,7.07.09,2.68,2.68,0,0,0,1.36-.35,3.36,3.36,0,0,0,.83-1,7.73,7.73,0,0,1,3.62-3,1.71,1.71,0,0,0,.89-0.58,1.48,1.48,0,0,0,.06-1.07,17.46,17.46,0,0,0-1.73-4.72,20.91,20.91,0,0,0-12.74-2C205.84,184.08,206.75,186.7,205.35,188.5Z" transform="translate(-27.09 -26.7)"/><path class="cls-15" d="M227.75,184.8a5,5,0,0,1,6.24-.46,5.71,5.71,0,0,1,2.12,6,1.77,1.77,0,0,1-.31.69,2.09,2.09,0,0,1-1.23.58l-7.69,1.69a1.05,1.05,0,0,1-.63,0,1,1,0,0,1-.38-0.36,14.44,14.44,0,0,1-2.59-11,3.07,3.07,0,0,1,.7-1.66c0.73-.74,1.93-0.66,3-0.53A11.42,11.42,0,0,1,227.75,184.8Z" transform="translate(-27.09 -26.7)"/><path class="cls-15" d="M241.2,183.26c3.34-.63,6.67.94,9.6,2.67a5.22,5.22,0,0,1,1.91,1.62,5.42,5.42,0,0,1,.56,2.68,5.55,5.55,0,0,1-.76,3.73c-0.85,1.05-2.31,1.33-3.65,1.54-2.49.39-5.35,0.67-7.22-1l-1.08-7.29C240,187.15,241.36,183.81,241.2,183.26Z" transform="translate(-27.09 -26.7)"/><path class="cls-15" d="M260,181.55a1.85,1.85,0,0,0,.3-0.89L261,175.6c0.19-1.27.34-2.7-.47-3.69-1.08-1.31-3.13-1-4.77-.59A12.74,12.74,0,0,0,252,182a12.92,12.92,0,0,0,7.08,0A1.73,1.73,0,0,0,260,181.55Z" transform="translate(-27.09 -26.7)"/><path class="cls-15" d="M215.65,197.21c1,0.43,1.24,1.63,1.38,2.66,0.38,2.85.47,5.87-.78,8.46a9,9,0,0,1-7.67,5,71.34,71.34,0,0,1-2.28-6.85,8.94,8.94,0,0,1-.38-4.7,4.74,4.74,0,0,1,.48-1.14c1.44-2.46,4.65-3.09,7.47-3.49A3.24,3.24,0,0,1,215.65,197.21Z" transform="translate(-27.09 -26.7)"/><path class="cls-15" d="M219.66,203.08c1.11,1.25,3,1.4,4.66,1.47a8.36,8.36,0,0,0,4.16-.55,4.15,4.15,0,0,0,.69-6.94,6.37,6.37,0,0,0-3.71-1.16,4,4,0,0,1-1-2.5,3.24,3.24,0,0,0-.14-1.21,2,2,0,0,0-2.14-.82,5.07,5.07,0,0,1-2.43.06L218.87,198C218.64,199.74,218.48,201.75,219.66,203.08Z" transform="translate(-27.09 -26.7)"/><path class="cls-15" d="M233.06,195l3.23-.71a3.23,3.23,0,0,1,1-.11,2.34,2.34,0,0,1,1.81,2,12.33,12.33,0,0,1-.07,2.89c-0.18,3.35,1.29,6.67.85,10a1.1,1.1,0,0,1-.26.67,1.13,1.13,0,0,1-.53.24,18.05,18.05,0,0,1-7.1.34c-2.13-.32-4.55-1.41-4.89-3.54a1.56,1.56,0,0,1,.07-0.88,2.27,2.27,0,0,1,1.6-1,17.4,17.4,0,0,0,5.42-2.64A43.31,43.31,0,0,0,233.06,195Z" transform="translate(-27.09 -26.7)"/><path class="cls-15" d="M258.43,203.38a6.37,6.37,0,0,0-2-3.24,7.77,7.77,0,0,0-2.22-1.8,6.91,6.91,0,0,0-3.22-.43c-2.05.09-4.23,0.45-5.76,1.81a7.12,7.12,0,0,0-2.13,5,20.3,20.3,0,0,0,.7,5.5l7.25,0.52a4.17,4.17,0,0,0,2.3-.27c1.26-.68,1.86-2.64,3.29-2.53C257.6,206.57,258.67,205,258.43,203.38Z" transform="translate(-27.09 -26.7)"/><path class="cls-15" d="M260,187.21a3.27,3.27,0,0,0-1.12-.86c-1.31-.5-2.59.77-3.38,1.94-1.55,2.31-2.92,4.93-2.82,7.71a12.81,12.81,0,0,0,5.1-.06,3.31,3.31,0,0,0,1.45-.6c0.87-.72.92-2,1.51-3a10.36,10.36,0,0,0,.82-1.26C262.15,189.71,261,188.27,260,187.21Z" transform="translate(-27.09 -26.7)"/><path class="cls-15" d="M207.33,218.26l7-.12a2.3,2.3,0,0,1,1.94.59,2.27,2.27,0,0,1,.34,1.13l0.19,1.65a8.45,8.45,0,0,1-.25,4.31c-1,2.28-3.66,3.21-6.05,3.88a8.94,8.94,0,0,1-3.13.5,3,3,0,0,1-2.58-1.6,4.47,4.47,0,0,1-.29-1.35L204,222A2.8,2.8,0,0,1,207.33,218.26Z" transform="translate(-27.09 -26.7)"/><path class="cls-15" d="M222.92,217c0.8,0.33,1,1.37,1.73,1.88a1.64,1.64,0,0,0,2.2-.33,3.16,3.16,0,0,0,.39-0.79l0.47-1.25c0.73-1.94,1.47-4,.88-6a8.34,8.34,0,0,0-3.11-1.8,3.85,3.85,0,0,0-.65-1,4.64,4.64,0,0,0-6.52-.12c-1.49,1.86-1.59,4.44-1.64,6.82a0.75,0.75,0,0,0,.84.9l2.61,0.38a1.3,1.3,0,0,1,.74.27c0.16,0.15.23,0.38,0.38,0.54C221.63,217,222.37,216.82,222.92,217Z" transform="translate(-27.09 -26.7)"/><path class="cls-15" d="M221.43,222.7a4.6,4.6,0,0,0,2.72-.67,8.9,8.9,0,0,1,5.25-.49,8,8,0,0,1-2.45,9.35,10.2,10.2,0,0,1-5.76,1.55,8.56,8.56,0,0,1-2.18-.2,5.64,5.64,0,0,1-4.15-5.1C214.77,224.78,219.2,223.45,221.43,222.7Z" transform="translate(-27.09 -26.7)"/><path class="cls-15" d="M244.21,220.46a4.63,4.63,0,0,0-.46-2.49c-0.58-.94-1.85-1.53-1.88-2.64l-3.77-1.75a57.71,57.71,0,0,1-5.35-2.72,12.19,12.19,0,0,0-2.25,5.76c-0.46,2.42-.67,5.31,1.15,7s4.51,1.26,6.83,1.88a22.69,22.69,0,0,0,2.73.78,2.64,2.64,0,0,0,2.55-.88,3.62,3.62,0,0,0,.43-2.07v-2.84Z" transform="translate(-27.09 -26.7)"/><path class="cls-15" d="M249.22,219.25a1.69,1.69,0,0,0,2,2.22l5.09-.07a14.29,14.29,0,0,0,2.68-8.11,0.81,0.81,0,0,0-.17-0.61,0.82,0.82,0,0,0-.46-0.17,49.46,49.46,0,0,0-10.88-.51c-0.25.9-.69,2-1.63,2.05a3.49,3.49,0,0,0-1.06,2.51,25.7,25.7,0,0,0,4.61-1.42Z" transform="translate(-27.09 -26.7)"/><path class="cls-15" d="M241.38,235.55c-0.73-2.15-1-4.83.62-6.44a7.23,7.23,0,0,1,2.14-1.32l2.9-1.35A28.22,28.22,0,0,1,253.6,224a5,5,0,0,1,1.69,2.74c0.65,2.85-1.26,5.6-3.11,7.87-1.21,1.49-2.54,3-4.36,3.63A5.47,5.47,0,0,1,241.38,235.55Z" transform="translate(-27.09 -26.7)"/><path class="cls-15" d="M240.94,233.08a4.17,4.17,0,0,0-1.41-2.85c-1.47-1.1-3.55-.45-5.23.29a11.52,11.52,0,0,0-5,3.47c-1.26,1.78-1.47,4.07-1.64,6.24a2.2,2.2,0,0,0,.26,1.55,1.94,1.94,0,0,0,.78.53A8.8,8.8,0,0,0,240.94,233.08Z" transform="translate(-27.09 -26.7)"/><path class="cls-15" d="M209.59,234.25a1,1,0,0,1,.87-0.76,26,26,0,0,1,12-.34,17.27,17.27,0,0,0,0,4.45,5.21,5.21,0,0,1-1.25,4.14c-1.6,1.48-4.14.92-6.26,1.41a7.92,7.92,0,0,0-2.64,1.21,1.66,1.66,0,0,1-1.07.42,1.46,1.46,0,0,1-.8-0.5,14.53,14.53,0,0,1-4-8.07,4.37,4.37,0,0,1,0-1.54,3.48,3.48,0,0,1,2.06-2.29C209.51,231.93,208.53,234.37,209.59,234.25Z" transform="translate(-27.09 -26.7)"/><path class="cls-15" d="M261.36,221.44c-2.07-.33-4.07,1.17-5,3a15,15,0,0,0-1.16,6.12,1.65,1.65,0,0,0,.16,1,1.38,1.38,0,0,0,.75.5c1.6,0.55,3.74-.24,4.06-1.9a5.81,5.81,0,0,0-.09-1.84A11.32,11.32,0,0,1,261.36,221.44Z" transform="translate(-27.09 -26.7)"/><path class="cls-15" d="M255.47,249.69c1,0,2.13-.16,2.56-1a2.76,2.76,0,0,0,.16-1.3A39.33,39.33,0,0,1,259,238a23.12,23.12,0,0,0-6.52-.1,7.8,7.8,0,0,0-5.41,3.33,8.72,8.72,0,0,0-.92,5.4,2.49,2.49,0,0,0,.3,1.1,2.32,2.32,0,0,0,.93.76C249.85,249.73,252.72,249.74,255.47,249.69Z" transform="translate(-27.09 -26.7)"/><path class="cls-15" d="M233.85,257.57a4.74,4.74,0,0,0,2.44.95,11.63,11.63,0,0,0,5.92-.32,6.08,6.08,0,0,0,3.94-4.18c0.6-2.8-1.32-5.46-3.13-7.68l-1.31-1.62a35.63,35.63,0,0,0-6.3.24,1,1,0,0,0-1.09.88,28.4,28.4,0,0,0-1.56,7.67C232.66,255,232.76,256.6,233.85,257.57Z" transform="translate(-27.09 -26.7)"/><path class="cls-15" d="M221.25,243.17c-0.29-.15-0.54.26-0.59,0.58a9,9,0,0,0,1.76,5.94,2.19,2.19,0,0,0,.75.81,2.3,2.3,0,0,0,.91.2,8.61,8.61,0,0,0,4.53-.48,5.33,5.33,0,0,0,2.57-3.26,9.89,9.89,0,0,0,.19-4.23,8.64,8.64,0,0,0-3.89-.83,12.32,12.32,0,0,0-4.78.49C221.2,242.93,221.59,241.59,221.25,243.17Z" transform="translate(-27.09 -26.7)"/><path class="cls-15" d="M205,247.73a13.35,13.35,0,0,0,3,12.43c1.24,1.33,3.2,2.45,4.8,1.59a5,5,0,0,0,1.8-2.18l3.82-7a4.86,4.86,0,0,0,.75-2.08,3.48,3.48,0,0,0-1-2.38c-2.24-2.46-6.17-2.59-9.29-1.44C207.12,247.28,205.53,245.92,205,247.73Z" transform="translate(-27.09 -26.7)"/><path class="cls-15" d="M222.44,254.2a34.57,34.57,0,0,0,4.62-.79c1.55-.2,3.37.12,4.2,1.45a5.33,5.33,0,0,1,.49,3.1,3.66,3.66,0,0,1-1.18,3l-6.4,7.21a2.72,2.72,0,0,1-2.93-.92,6.45,6.45,0,0,1-1.25-3,22.12,22.12,0,0,1-.37-2.62,7,7,0,0,1,.56-3.95C221.22,255.78,220.33,254.72,222.44,254.2Z" transform="translate(-27.09 -26.7)"/><path class="cls-15" d="M244.37,260.16l-4.1.11a2.73,2.73,0,0,0-1.25.23,4.34,4.34,0,0,0-1,1,19,19,0,0,1-1.93,1.56c-2.24,1.92-2.76,5.18-2.64,8.12a1.56,1.56,0,0,0,.17.77,1.54,1.54,0,0,0,.81.54,18.12,18.12,0,0,0,10.52.69,5.6,5.6,0,0,0,2.75-1.31,5.85,5.85,0,0,0,1.34-2.84,25.07,25.07,0,0,0,.68-5,4.48,4.48,0,0,0-.26-2C248.67,260.32,246.3,260.11,244.37,260.16Z" transform="translate(-27.09 -26.7)"/><path class="cls-15" d="M249.72,253.58a16.72,16.72,0,0,0-1.29,5.34,2.94,2.94,0,0,0,.08,1.13c0.36,1.11,1.74,1.47,2.91,1.49a12,12,0,0,0,6.39-1.74,3.12,3.12,0,0,0,1.18-1.08,3.58,3.58,0,0,0,.33-1.29l0.54-4.24a1.36,1.36,0,0,0,0-.69,1.38,1.38,0,0,0-1.12-.63c-2.47-.46-5.15-0.89-7.41.23C249.23,253.13,252,253.27,249.72,253.58Z" transform="translate(-27.09 -26.7)"/><path class="cls-15" d="M200.2,277.58l0-3a5.17,5.17,0,0,1,.21-1.9,12.89,12.89,0,0,1,.69-1.29,10,10,0,0,0,.75-3.53,6.17,6.17,0,0,1,1.14-3.39,2.43,2.43,0,0,1,3.22-.58,16.3,16.3,0,0,1-3,14.09,3.19,3.19,0,0,1-1.23,1,1.26,1.26,0,0,1-1.47-.32A1.88,1.88,0,0,1,200.2,277.58Z" transform="translate(-27.09 -26.7)"/><path class="cls-15" d="M208.45,276.11a4.18,4.18,0,0,0,.25,1.59,4,4,0,0,0,1.5,1.61,13.77,13.77,0,0,0,9.17,2.36,5.34,5.34,0,0,0,3.87-1.8c0.9-1.24.83-2.91,0.7-4.44a10.36,10.36,0,0,0-.39-2.31c-0.57-1.76-2-3.08-3.11-4.55s-2-3.43-1.26-5.13a9.22,9.22,0,0,0-8.13,3.8A14.37,14.37,0,0,0,208.45,276.11Z" transform="translate(-27.09 -26.7)"/><path class="cls-15" d="M201.77,244a0.64,0.64,0,0,1-.14-0.54l0.49-9.36a2.4,2.4,0,0,1,2.92.71,5.33,5.33,0,0,1,1,3,7.51,7.51,0,0,1-.63,4.06,3.85,3.85,0,0,1-3.29,2.18A0.57,0.57,0,0,1,201.77,244Z" transform="translate(-27.09 -26.7)"/><path class="cls-15" d="M205.71,214.27a2.7,2.7,0,0,1-.14,1.08,1.84,1.84,0,0,1-1.79,1,5.41,5.41,0,0,1-2.05-.65,15.85,15.85,0,0,1,.27-4.34c0.23-1.12.9-2.45,2-2.38a1.76,1.76,0,0,1,1.41,1.17,5.18,5.18,0,0,1,.25,1.9v2.25Z" transform="translate(-27.09 -26.7)"/><path class="cls-15" d="M227.65,267.29a3,3,0,0,0-1.87,2.53,7.16,7.16,0,0,0,.52,3.24c0.72,2.05,1.72,4.06,1.83,6.23a4.54,4.54,0,0,0,.19,1.49,1.83,1.83,0,0,0,2.61.79,18,18,0,0,0,1.1-10.06,6.65,6.65,0,0,0-1.29-3.17A3,3,0,0,0,227.65,267.29Z" transform="translate(-27.09 -26.7)"/><path class="cls-15" d="M253.84,277.82a2.47,2.47,0,0,0-.5-0.95,2.82,2.82,0,0,0-1.16-.66c-3.55-1.26-7.42-1.09-11.18-.92a2.79,2.79,0,0,0-1.55.39,7.35,7.35,0,0,0-1,1.36,22.24,22.24,0,0,1-2,1.53c-1.6,1.51-.93,4.12-1.19,6.31,3.06,1.66,6.76,1.45,10.23,1.2,2.17-.16,4.47-0.36,6.24-1.63A6.1,6.1,0,0,0,253.84,277.82Z" transform="translate(-27.09 -26.7)"/><path class="cls-15" d="M249.86,264.72a3.37,3.37,0,0,0-.48,1.81c-0.16,1.82-.57,3.83.46,5.34,1.14,1.66,3.47,1.87,5.48,1.92a4.85,4.85,0,0,0,3.35-.74,4.8,4.8,0,0,0,1-1.41c1.06-1.95,2.14-4,2.1-6.22a1.1,1.1,0,0,0-.17-0.67,1.19,1.19,0,0,0-.74-0.34,33.82,33.82,0,0,0-8.79-.52A3,3,0,0,0,249.86,264.72Z" transform="translate(-27.09 -26.7)"/><path class="cls-15" d="M255.21,293a7.6,7.6,0,0,0,4.42-5.76c0.11-.89,0-1.8.08-2.7a9.79,9.79,0,0,1,.88-3.58,1.84,1.84,0,0,0,.26-1.44,1.13,1.13,0,0,0-1.31-.52,3.09,3.09,0,0,0-1.28.82,34.17,34.17,0,0,0-7.72,10.5,4.72,4.72,0,0,0-.6,3.34A8.78,8.78,0,0,0,255.21,293Z" transform="translate(-27.09 -26.7)"/><path class="cls-15" d="M222.21,286.07l8.75,0.11a13.6,13.6,0,0,1,1.91,9.41,3.42,3.42,0,0,1-.79,1.89,3.73,3.73,0,0,1-2.37.83,38.16,38.16,0,0,1-6,.1,20,20,0,0,1-2.92-10.9,1.52,1.52,0,0,1,.45-1.25A1.57,1.57,0,0,1,222.21,286.07Z" transform="translate(-27.09 -26.7)"/><path class="cls-15" d="M216.52,285.88c0-1.47-.07-3.16-1.26-4a4.66,4.66,0,0,0-2.54-.64l-5.3-.3a1.88,1.88,0,0,0-2.22,1.44l-0.77,1.56a7.59,7.59,0,0,0-.84,2.29,2.57,2.57,0,0,0,.69,2.25,3.81,3.81,0,0,0,1.76.73l4.5,1c1.68,0.38,3.69.68,4.92-.54C216.42,288.71,216.5,287.22,216.52,285.88Z" transform="translate(-27.09 -26.7)"/><path class="cls-15" d="M203.3,293a7,7,0,0,1,7.47,1.59,5.08,5.08,0,0,1,.78,1,4.19,4.19,0,0,1-1.23,5.3,4,4,0,0,1-3.56,1.13,8.92,8.92,0,0,1-3.55-1.51,7.49,7.49,0,0,1-2.7-2.65C199.91,296.72,202.12,293.46,203.3,293Z" transform="translate(-27.09 -26.7)"/><path class="cls-15" d="M212.35,296.08a4.16,4.16,0,0,0,1.17,4.53,6.6,6.6,0,0,0,2.62,1l4,0.9a16.79,16.79,0,0,0,1.6-6.76,2.72,2.72,0,0,0-.14-1.1,2.32,2.32,0,0,0-.58-0.78A5.28,5.28,0,0,0,212.35,296.08Z" transform="translate(-27.09 -26.7)"/><path class="cls-15" d="M243.66,299.42a2.6,2.6,0,0,1-.26,1.27,2.44,2.44,0,0,1-1.8.91c-1.88.3-4.2,0.05-5.06-1.64a4.88,4.88,0,0,1-.37-1.18,35.33,35.33,0,0,1-.82-8.11,20.59,20.59,0,0,1,5.52-1.1,3.15,3.15,0,0,1,2.19.45c0.81,0.65.85,1.85,0.81,2.89Z" transform="translate(-27.09 -26.7)"/><path class="cls-15" d="M247,296.19a26.88,26.88,0,0,0-1.2,8.57,1.75,1.75,0,0,0,1,1.79,30,30,0,0,0,8,3.81c1.55,0.47,3.42.74,4.61-.35a4.33,4.33,0,0,0,1.05-1.84,14.34,14.34,0,0,0,.78-4.82,3.75,3.75,0,0,0-.7-2.45,4.28,4.28,0,0,0-1.69-1l-4.19-1.7c-0.62-.25-1.24-0.5-1.87-0.73A23,23,0,0,0,247,296.19Z" transform="translate(-27.09 -26.7)"/><path class="cls-15" d="M221.8,304.38a5.52,5.52,0,0,1,3.2-1.9,19.31,19.31,0,0,1,6.54-.66,2.38,2.38,0,0,1,1,.24,2.5,2.5,0,0,1,.94,1.71,51.54,51.54,0,0,1,1.21,8.6,1.42,1.42,0,0,1-.09.72,1.46,1.46,0,0,1-1.27.57,13.71,13.71,0,0,1-5.77-.34c-0.43-.15-0.84-0.35-1.25-0.54l-3.54-1.68a2.48,2.48,0,0,1-1.72-2.85A6.42,6.42,0,0,1,221.8,304.38Z" transform="translate(-27.09 -26.7)"/><path class="cls-15" d="M219.55,311.38a2.48,2.48,0,0,0,1.39-2,5,5,0,0,0-1.15-4.1,7.73,7.73,0,0,0-3.9-2.15,17.2,17.2,0,0,0-9.91.31c-0.62,2.1-.54,4.78,1.29,6a6,6,0,0,0,1.91.72,48.68,48.68,0,0,0,9.15,1.33A3.12,3.12,0,0,0,219.55,311.38Z" transform="translate(-27.09 -26.7)"/><path class="cls-15" d="M211.92,315a5.3,5.3,0,0,1-2.67,3.94c-1.71.93-3.77,0.84-5.72,0.73a2.66,2.66,0,0,1-2.25-.9,2.59,2.59,0,0,1-.23-1.43q0.09-2.62.32-5.24l7.47-.19a3.7,3.7,0,0,1,2.06.35A2.78,2.78,0,0,1,211.92,315Z" transform="translate(-27.09 -26.7)"/><path class="cls-15" d="M225.43,319a2.09,2.09,0,0,0,1.21-.06,1.86,1.86,0,0,0,.79-1.73,7.39,7.39,0,0,0-.52-2.85,1.57,1.57,0,0,0-.44-0.68,1.74,1.74,0,0,0-.78-0.28q-4.42-.82-8.9-1.19a7.69,7.69,0,0,0-1.22,2.44,2.63,2.63,0,0,0,.64,2.54,3.91,3.91,0,0,0,2.09.74l3,0.46Z" transform="translate(-27.09 -26.7)"/><path class="cls-15" d="M245.59,317.42a25.83,25.83,0,0,0,.56-7.22,6.75,6.75,0,0,0-5-.93,15.49,15.49,0,0,0-1.11,8.15C241.85,318,244,318.6,245.59,317.42Z" transform="translate(-27.09 -26.7)"/><path class="cls-15" d="M257.11,318.19a5.2,5.2,0,0,1-4.8-.06,4.6,4.6,0,0,1-2.23-5.33,2.13,2.13,0,0,1,1.9-.42,7,7,0,0,1,4,1.76A4,4,0,0,1,257.11,318.19Z" transform="translate(-27.09 -26.7)"/></g><g id="Piedras-2"><path class="cls-15" d="M465.15,163.74a5.38,5.38,0,0,1,.28,1.83,2.41,2.41,0,0,0,1.84,1.67,7.08,7.08,0,0,0,2.6,0,1.52,1.52,0,0,0,1.65-1.21l1.82-5.14a2.92,2.92,0,0,0,2.48-.65,2,2,0,0,0,.36-2.42,5.58,5.58,0,0,0-4.31-1.39l-4.1.05a12.89,12.89,0,0,0-4,.47,4.36,4.36,0,0,0-2.86,2.64,2.67,2.67,0,0,0,1.52,3.3C463.38,163.18,464.63,162.91,465.15,163.74Z" transform="translate(-27.09 -26.7)"/><path class="cls-15" d="M487.7,170.9c1.37-.63,2.84-1.34,3.52-2.69,1.08-2.16-.3-5.1,1.17-7a15.89,15.89,0,0,1-5.67-.26c-1.64-.38-3.33-1-5-0.61a5.93,5.93,0,0,0-3.54,3.19,6.05,6.05,0,0,0-.79,3.68l1.9,0.23a1.2,1.2,0,0,1,.47.12,1.28,1.28,0,0,1,.44.61c0.89,1.9,2.65,3.65,4.76,3.58A7.3,7.3,0,0,0,487.7,170.9Z" transform="translate(-27.09 -26.7)"/><path class="cls-15" d="M500.62,154.91c-0.48-1-1.92-.94-3-0.66A24.35,24.35,0,0,0,493,156a1.25,1.25,0,0,1-1.07.18,4,4,0,0,1-.58-0.54,1.74,1.74,0,0,0-1.08-.24h-4.38a3.58,3.58,0,0,0,1.21,4.52,6.86,6.86,0,0,0,3.8.71,18.4,18.4,0,0,0,5.45-.63,6.59,6.59,0,0,0,4.12-3.4A2,2,0,0,0,500.62,154.91Z" transform="translate(-27.09 -26.7)"/><path class="cls-15" d="M462.43,175.67a3.64,3.64,0,0,1-.15-3.74,2.26,2.26,0,0,1,.9-1.09,2.72,2.72,0,0,1,1-.24,86.26,86.26,0,0,1,14.64-.54c0.28,1.4.41,3.19-.82,3.93a6.24,6.24,0,0,1-1.55.49,10.84,10.84,0,0,0-3.5,2.34,4.73,4.73,0,0,1-3.87,1.33,12.36,12.36,0,0,1-1.5-.6C465.82,176.88,463.59,177.12,462.43,175.67Z" transform="translate(-27.09 -26.7)"/><path class="cls-15" d="M492.18,177.52a11.87,11.87,0,0,0,3.09-3.56l-0.19-1.83c-3.21-.63-6.42,1.1-9.7,1.15-1.34,0-2.73-.23-4,0.24-1.65.63-2.63,2.87-1.58,4.29,0.92,1.26,2.78,1.32,4.3,1s3-1,4.57-.78a0.47,0.47,0,0,1,.49.42A3.44,3.44,0,0,0,492.18,177.52Z" transform="translate(-27.09 -26.7)"/><path class="cls-15" d="M504.27,158.42a4.29,4.29,0,0,1-3.09,2.65c-1.15.24-2.35,0-3.52,0.13a6.26,6.26,0,0,0-4.5,3.1,9.22,9.22,0,0,0-1.1,5.46,12.35,12.35,0,0,0,2.72.28,3,3,0,0,0,1.5-.31,1.22,1.22,0,0,0,.63-1.29c1.31-.17,2.28,1.6,3.59,1.4a2.35,2.35,0,0,0,1.35-.95,12.47,12.47,0,0,0,2.81-8.94h2.71v-1.5Z" transform="translate(-27.09 -26.7)"/><path class="cls-15" d="M514,167.95c1.29-.53,2.2-2,3.6-2a2.58,2.58,0,0,0,1.11-.11,1.54,1.54,0,0,0,.61-1.2,30.67,30.67,0,0,0,.26-7.21,67.46,67.46,0,0,0-8-.17l-3.17,5c-1.14,1.78-2.32,3.84-1.75,5.87q2.59,0.22,5.19.21A5.62,5.62,0,0,0,514,167.95Z" transform="translate(-27.09 -26.7)"/><path class="cls-15" d="M509.64,176.28a4,4,0,0,1-2.22,2.76c-1.32.49-2.81-.11-4.19,0.16-1.2.24-2.4,1.13-3.52,0.66a3,3,0,0,1-1.43-2.17,15.22,15.22,0,0,1-.36-5.24h3.48l0-.79a15.62,15.62,0,0,1,4.65-1.44,3.65,3.65,0,0,1,2.73.41,3.26,3.26,0,0,1,1.08,2.08A7.74,7.74,0,0,1,509.64,176.28Z" transform="translate(-27.09 -26.7)"/><path class="cls-15" d="M465.56,187.75a6.3,6.3,0,0,1-2.74,1.72,2.54,2.54,0,0,0,.81,3.25,6.64,6.64,0,0,0,3.48,1.06,42.5,42.5,0,0,0,7.07.09,2.68,2.68,0,0,0,1.36-.35,3.36,3.36,0,0,0,.83-1,7.73,7.73,0,0,1,3.62-3,1.71,1.71,0,0,0,.89-0.58,1.48,1.48,0,0,0,.06-1.07,17.46,17.46,0,0,0-1.73-4.72,20.91,20.91,0,0,0-12.74-2C466,183.33,467,185.95,465.56,187.75Z" transform="translate(-27.09 -26.7)"/><path class="cls-15" d="M488,184a5,5,0,0,1,6.24-.46,5.71,5.71,0,0,1,2.12,6,1.77,1.77,0,0,1-.31.69,2.09,2.09,0,0,1-1.23.58l-7.69,1.69a1.05,1.05,0,0,1-.63,0,1,1,0,0,1-.38-0.36,14.44,14.44,0,0,1-2.59-11,3.07,3.07,0,0,1,.7-1.66c0.73-.74,1.93-0.66,3-0.53A11.42,11.42,0,0,1,488,184Z" transform="translate(-27.09 -26.7)"/><path class="cls-15" d="M501.4,182.51c3.34-.63,6.67.94,9.6,2.67a5.22,5.22,0,0,1,1.91,1.62,5.42,5.42,0,0,1,.56,2.68,5.55,5.55,0,0,1-.76,3.73c-0.85,1.05-2.31,1.33-3.65,1.54-2.49.39-5.35,0.67-7.22-1l-1.08-7.29C500.19,186.4,501.56,183.06,501.4,182.51Z" transform="translate(-27.09 -26.7)"/><path class="cls-15" d="M520.16,180.8a1.85,1.85,0,0,0,.3-0.89l0.78-5.06c0.19-1.27.34-2.7-.47-3.69-1.08-1.31-3.13-1-4.77-.59a12.74,12.74,0,0,0-3.83,10.71,12.92,12.92,0,0,0,7.08,0A1.73,1.73,0,0,0,520.16,180.8Z" transform="translate(-27.09 -26.7)"/><path class="cls-15" d="M475.85,196.46c1,0.43,1.24,1.63,1.38,2.66,0.38,2.85.47,5.87-.78,8.46a9,9,0,0,1-7.67,5,71.34,71.34,0,0,1-2.28-6.85,8.94,8.94,0,0,1-.38-4.7,4.74,4.74,0,0,1,.48-1.14c1.44-2.46,4.65-3.09,7.47-3.49A3.24,3.24,0,0,1,475.85,196.46Z" transform="translate(-27.09 -26.7)"/><path class="cls-15" d="M479.86,202.33c1.11,1.25,3,1.4,4.66,1.47a8.36,8.36,0,0,0,4.16-.55,4.15,4.15,0,0,0,.69-6.94,6.37,6.37,0,0,0-3.71-1.16,4,4,0,0,1-1-2.5,3.24,3.24,0,0,0-.14-1.21,2,2,0,0,0-2.14-.82,5.07,5.07,0,0,1-2.43.06l-0.85,6.55C478.84,199,478.68,201,479.86,202.33Z" transform="translate(-27.09 -26.7)"/><path class="cls-15" d="M493.26,194.22l3.23-.71a3.23,3.23,0,0,1,1-.11,2.34,2.34,0,0,1,1.81,2,12.33,12.33,0,0,1-.07,2.89c-0.18,3.35,1.29,6.67.85,10a1.1,1.1,0,0,1-.26.67,1.13,1.13,0,0,1-.53.24,18.05,18.05,0,0,1-7.1.34c-2.13-.32-4.55-1.41-4.89-3.54a1.56,1.56,0,0,1,.07-0.88,2.27,2.27,0,0,1,1.6-1,17.4,17.4,0,0,0,5.42-2.64A43.31,43.31,0,0,0,493.26,194.22Z" transform="translate(-27.09 -26.7)"/><path class="cls-15" d="M518.63,202.63a6.37,6.37,0,0,0-2-3.24,7.77,7.77,0,0,0-2.22-1.8,6.91,6.91,0,0,0-3.22-.43c-2.05.09-4.23,0.45-5.76,1.81a7.12,7.12,0,0,0-2.13,5,20.3,20.3,0,0,0,.7,5.5L511.2,210a4.17,4.17,0,0,0,2.3-.27c1.26-.68,1.86-2.64,3.29-2.53C517.81,205.82,518.88,204.29,518.63,202.63Z" transform="translate(-27.09 -26.7)"/><path class="cls-15" d="M520.22,186.46a3.27,3.27,0,0,0-1.12-.86c-1.31-.5-2.59.77-3.38,1.94-1.55,2.31-2.92,4.93-2.82,7.71a12.81,12.81,0,0,0,5.1-.06,3.31,3.31,0,0,0,1.45-.6c0.87-.72.92-2,1.51-3a10.36,10.36,0,0,0,.82-1.26C522.35,189,521.24,187.52,520.22,186.46Z" transform="translate(-27.09 -26.7)"/><path class="cls-15" d="M467.54,217.51l7-.12a2.3,2.3,0,0,1,1.94.59,2.27,2.27,0,0,1,.34,1.13l0.19,1.65a8.45,8.45,0,0,1-.25,4.31c-1,2.28-3.66,3.21-6.05,3.88a8.94,8.94,0,0,1-3.13.5,3,3,0,0,1-2.58-1.6,4.47,4.47,0,0,1-.29-1.35l-0.56-5.24A2.8,2.8,0,0,1,467.54,217.51Z" transform="translate(-27.09 -26.7)"/><path class="cls-15" d="M483.13,216.3c0.8,0.33,1,1.37,1.73,1.88a1.64,1.64,0,0,0,2.2-.33,3.16,3.16,0,0,0,.39-0.79l0.47-1.25c0.73-1.94,1.47-4,.88-6a8.34,8.34,0,0,0-3.11-1.8,3.85,3.85,0,0,0-.65-1,4.64,4.64,0,0,0-6.52-.12c-1.49,1.86-1.59,4.44-1.64,6.82a0.75,0.75,0,0,0,.84.9l2.61,0.38a1.3,1.3,0,0,1,.74.27c0.16,0.15.23,0.38,0.38,0.54C481.83,216.23,482.57,216.07,483.13,216.3Z" transform="translate(-27.09 -26.7)"/><path class="cls-15" d="M481.63,221.95a4.6,4.6,0,0,0,2.72-.67,8.9,8.9,0,0,1,5.25-.49,8,8,0,0,1-2.45,9.35,10.2,10.2,0,0,1-5.76,1.55,8.56,8.56,0,0,1-2.18-.2,5.64,5.64,0,0,1-4.15-5.1C475,224,479.4,222.7,481.63,221.95Z" transform="translate(-27.09 -26.7)"/><path class="cls-15" d="M504.42,219.71a4.63,4.63,0,0,0-.46-2.49c-0.58-.94-1.85-1.53-1.88-2.64l-3.77-1.75a57.71,57.71,0,0,1-5.35-2.72,12.19,12.19,0,0,0-2.25,5.76c-0.46,2.42-.67,5.31,1.15,7s4.51,1.26,6.83,1.88a22.69,22.69,0,0,0,2.73.78,2.64,2.64,0,0,0,2.55-.88,3.62,3.62,0,0,0,.43-2.07v-2.84Z" transform="translate(-27.09 -26.7)"/><path class="cls-15" d="M509.43,218.5a1.69,1.69,0,0,0,2,2.22l5.09-.07a14.29,14.29,0,0,0,2.68-8.11,0.81,0.81,0,0,0-.17-0.61,0.82,0.82,0,0,0-.46-0.17,49.46,49.46,0,0,0-10.88-.51c-0.25.9-.69,2-1.63,2.05A3.49,3.49,0,0,0,505,215.8a25.7,25.7,0,0,0,4.61-1.42Z" transform="translate(-27.09 -26.7)"/><path class="cls-15" d="M501.58,234.8c-0.73-2.15-1-4.83.62-6.44a7.23,7.23,0,0,1,2.14-1.32l2.9-1.35a28.22,28.22,0,0,1,6.57-2.42A5,5,0,0,1,515.5,226c0.65,2.85-1.26,5.6-3.11,7.87-1.21,1.49-2.54,3-4.36,3.63A5.47,5.47,0,0,1,501.58,234.8Z" transform="translate(-27.09 -26.7)"/><path class="cls-15" d="M501.14,232.33a4.17,4.17,0,0,0-1.41-2.85c-1.47-1.1-3.55-.45-5.23.29a11.52,11.52,0,0,0-5,3.47c-1.26,1.78-1.47,4.07-1.64,6.24a2.2,2.2,0,0,0,.26,1.55,1.94,1.94,0,0,0,.78.53A8.8,8.8,0,0,0,501.14,232.33Z" transform="translate(-27.09 -26.7)"/><path class="cls-15" d="M469.8,233.5a1,1,0,0,1,.87-0.76,26,26,0,0,1,12-.34,17.27,17.27,0,0,0,0,4.45,5.21,5.21,0,0,1-1.25,4.14c-1.6,1.48-4.14.92-6.26,1.41a7.92,7.92,0,0,0-2.64,1.21,1.66,1.66,0,0,1-1.07.42,1.46,1.46,0,0,1-.8-0.5,14.53,14.53,0,0,1-4-8.07,4.37,4.37,0,0,1,0-1.54,3.48,3.48,0,0,1,2.06-2.29C469.72,231.18,468.74,233.62,469.8,233.5Z" transform="translate(-27.09 -26.7)"/><path class="cls-15" d="M521.56,220.69c-2.07-.33-4.07,1.17-5,3a15,15,0,0,0-1.16,6.12,1.65,1.65,0,0,0,.16,1,1.38,1.38,0,0,0,.75.5c1.6,0.55,3.74-.24,4.06-1.9a5.81,5.81,0,0,0-.09-1.84A11.32,11.32,0,0,1,521.56,220.69Z" transform="translate(-27.09 -26.7)"/><path class="cls-15" d="M515.67,248.94c1,0,2.13-.16,2.56-1a2.76,2.76,0,0,0,.16-1.3,39.33,39.33,0,0,1,.85-9.38,23.12,23.12,0,0,0-6.52-.1,7.8,7.8,0,0,0-5.41,3.33,8.72,8.72,0,0,0-.92,5.4,2.49,2.49,0,0,0,.3,1.1,2.32,2.32,0,0,0,.93.76C510.05,249,512.92,249,515.67,248.94Z" transform="translate(-27.09 -26.7)"/><path class="cls-15" d="M494,256.82a4.74,4.74,0,0,0,2.44.95,11.63,11.63,0,0,0,5.92-.32,6.08,6.08,0,0,0,3.94-4.18c0.6-2.8-1.32-5.46-3.13-7.68L501.9,244a35.63,35.63,0,0,0-6.3.24,1,1,0,0,0-1.09.88,28.4,28.4,0,0,0-1.56,7.67C492.86,254.21,493,255.85,494,256.82Z" transform="translate(-27.09 -26.7)"/><path class="cls-15" d="M481.46,242.42c-0.29-.15-0.54.26-0.59,0.58a9,9,0,0,0,1.76,5.94,2.19,2.19,0,0,0,.75.81,2.3,2.3,0,0,0,.91.2,8.61,8.61,0,0,0,4.53-.48,5.33,5.33,0,0,0,2.57-3.26,9.89,9.89,0,0,0,.19-4.23,8.64,8.64,0,0,0-3.89-.83,12.32,12.32,0,0,0-4.78.49C481.4,242.18,481.79,240.84,481.46,242.42Z" transform="translate(-27.09 -26.7)"/><path class="cls-15" d="M465.23,247a13.35,13.35,0,0,0,3,12.43c1.24,1.33,3.2,2.45,4.8,1.59a5,5,0,0,0,1.8-2.18l3.82-7a4.86,4.86,0,0,0,.75-2.08,3.48,3.48,0,0,0-1-2.38c-2.24-2.46-6.17-2.59-9.29-1.44C467.33,246.53,465.73,245.17,465.23,247Z" transform="translate(-27.09 -26.7)"/><path class="cls-15" d="M482.64,253.45a34.57,34.57,0,0,0,4.62-.79c1.55-.2,3.37.12,4.2,1.45a5.33,5.33,0,0,1,.49,3.1,3.66,3.66,0,0,1-1.18,3l-6.4,7.21a2.72,2.72,0,0,1-2.93-.92,6.45,6.45,0,0,1-1.25-3,22.12,22.12,0,0,1-.37-2.62,7,7,0,0,1,.56-3.95C481.42,255,480.54,254,482.64,253.45Z" transform="translate(-27.09 -26.7)"/><path class="cls-15" d="M504.57,259.41l-4.1.11a2.73,2.73,0,0,0-1.25.23,4.34,4.34,0,0,0-1,1,19,19,0,0,1-1.93,1.56c-2.24,1.92-2.76,5.18-2.64,8.12a1.56,1.56,0,0,0,.17.77,1.54,1.54,0,0,0,.81.54,18.12,18.12,0,0,0,10.52.69,5.6,5.6,0,0,0,2.75-1.31,5.85,5.85,0,0,0,1.34-2.84,25.07,25.07,0,0,0,.68-5,4.48,4.48,0,0,0-.26-2C508.88,259.57,506.5,259.36,504.57,259.41Z" transform="translate(-27.09 -26.7)"/><path class="cls-15" d="M509.92,252.83a16.72,16.72,0,0,0-1.29,5.34,2.94,2.94,0,0,0,.08,1.13c0.36,1.11,1.74,1.47,2.91,1.49A12,12,0,0,0,518,259,3.12,3.12,0,0,0,519.2,258a3.58,3.58,0,0,0,.33-1.29l0.54-4.24a1.36,1.36,0,0,0,0-.69,1.38,1.38,0,0,0-1.12-.63c-2.47-.46-5.15-0.89-7.41.23C509.43,252.38,512.22,252.52,509.92,252.83Z" transform="translate(-27.09 -26.7)"/><path class="cls-15" d="M460.41,276.83l0-3a5.17,5.17,0,0,1,.21-1.9,12.89,12.89,0,0,1,.69-1.29,10,10,0,0,0,.75-3.53,6.17,6.17,0,0,1,1.14-3.39,2.43,2.43,0,0,1,3.22-.58,16.3,16.3,0,0,1-3,14.09,3.19,3.19,0,0,1-1.23,1,1.26,1.26,0,0,1-1.47-.32A1.88,1.88,0,0,1,460.41,276.83Z" transform="translate(-27.09 -26.7)"/><path class="cls-15" d="M468.66,275.36a4.18,4.18,0,0,0,.25,1.59,4,4,0,0,0,1.5,1.61,13.77,13.77,0,0,0,9.17,2.36,5.34,5.34,0,0,0,3.87-1.8c0.9-1.24.83-2.91,0.7-4.44a10.36,10.36,0,0,0-.39-2.31c-0.57-1.76-2-3.08-3.11-4.55s-2-3.43-1.26-5.13a9.22,9.22,0,0,0-8.13,3.8A14.37,14.37,0,0,0,468.66,275.36Z" transform="translate(-27.09 -26.7)"/><path class="cls-15" d="M462,243.27a0.64,0.64,0,0,1-.14-0.54l0.49-9.36a2.4,2.4,0,0,1,2.92.71,5.33,5.33,0,0,1,1,3,7.51,7.51,0,0,1-.63,4.06,3.85,3.85,0,0,1-3.29,2.18A0.57,0.57,0,0,1,462,243.27Z" transform="translate(-27.09 -26.7)"/><path class="cls-15" d="M465.91,213.52a2.7,2.7,0,0,1-.14,1.08,1.84,1.84,0,0,1-1.79,1,5.41,5.41,0,0,1-2.05-.65,15.85,15.85,0,0,1,.27-4.34c0.23-1.12.9-2.45,2-2.38a1.76,1.76,0,0,1,1.41,1.17,5.18,5.18,0,0,1,.25,1.9v2.25Z" transform="translate(-27.09 -26.7)"/><path class="cls-15" d="M487.85,266.54a3,3,0,0,0-1.87,2.53,7.16,7.16,0,0,0,.52,3.24c0.72,2.05,1.72,4.06,1.83,6.23a4.54,4.54,0,0,0,.19,1.49,1.83,1.83,0,0,0,2.61.79,18,18,0,0,0,1.1-10.06,6.65,6.65,0,0,0-1.29-3.17A3,3,0,0,0,487.85,266.54Z" transform="translate(-27.09 -26.7)"/><path class="cls-15" d="M514,277.07a2.47,2.47,0,0,0-.5-0.95,2.82,2.82,0,0,0-1.16-.66c-3.55-1.26-7.42-1.09-11.18-.92a2.79,2.79,0,0,0-1.55.39,7.35,7.35,0,0,0-1,1.36,22.24,22.24,0,0,1-2,1.53c-1.6,1.51-.93,4.12-1.19,6.31,3.06,1.66,6.76,1.45,10.23,1.2,2.17-.16,4.47-0.36,6.24-1.63A6.1,6.1,0,0,0,514,277.07Z" transform="translate(-27.09 -26.7)"/><path class="cls-15" d="M510.07,264a3.37,3.37,0,0,0-.48,1.81c-0.16,1.82-.57,3.83.46,5.34,1.14,1.66,3.47,1.87,5.48,1.92a4.85,4.85,0,0,0,3.35-.74,4.8,4.8,0,0,0,1-1.41c1.06-1.95,2.14-4,2.1-6.22a1.1,1.1,0,0,0-.17-0.67,1.19,1.19,0,0,0-.74-0.34,33.82,33.82,0,0,0-8.79-.52A3,3,0,0,0,510.07,264Z" transform="translate(-27.09 -26.7)"/><path class="cls-15" d="M515.41,292.25a7.6,7.6,0,0,0,4.42-5.76c0.11-.89,0-1.8.08-2.7a9.79,9.79,0,0,1,.88-3.58,1.84,1.84,0,0,0,.26-1.44,1.13,1.13,0,0,0-1.31-.52,3.09,3.09,0,0,0-1.28.82,34.17,34.17,0,0,0-7.72,10.5,4.72,4.72,0,0,0-.6,3.34A8.78,8.78,0,0,0,515.41,292.25Z" transform="translate(-27.09 -26.7)"/><path class="cls-15" d="M482.41,285.32l8.75,0.11a13.6,13.6,0,0,1,1.91,9.41,3.42,3.42,0,0,1-.79,1.89,3.73,3.73,0,0,1-2.37.83,38.16,38.16,0,0,1-6,.1,20,20,0,0,1-2.92-10.9,1.52,1.52,0,0,1,.45-1.25A1.57,1.57,0,0,1,482.41,285.32Z" transform="translate(-27.09 -26.7)"/><path class="cls-15" d="M476.72,285.13c0-1.47-.07-3.16-1.26-4a4.66,4.66,0,0,0-2.54-.64l-5.3-.3a1.88,1.88,0,0,0-2.22,1.44l-0.77,1.56a7.59,7.59,0,0,0-.84,2.29,2.57,2.57,0,0,0,.69,2.25,3.81,3.81,0,0,0,1.76.73l4.5,1c1.68,0.38,3.69.68,4.92-.54C476.63,288,476.7,286.47,476.72,285.13Z" transform="translate(-27.09 -26.7)"/><path class="cls-15" d="M463.5,292.23a7,7,0,0,1,7.47,1.59,5.08,5.08,0,0,1,.78,1,4.19,4.19,0,0,1-1.23,5.3,4,4,0,0,1-3.56,1.13,8.92,8.92,0,0,1-3.55-1.51,7.49,7.49,0,0,1-2.7-2.65C460.11,296,462.32,292.71,463.5,292.23Z" transform="translate(-27.09 -26.7)"/><path class="cls-15" d="M472.56,295.33a4.16,4.16,0,0,0,1.17,4.53,6.6,6.6,0,0,0,2.62,1l4,0.9a16.79,16.79,0,0,0,1.6-6.76,2.72,2.72,0,0,0-.14-1.1,2.32,2.32,0,0,0-.58-0.78A5.28,5.28,0,0,0,472.56,295.33Z" transform="translate(-27.09 -26.7)"/><path class="cls-15" d="M503.86,298.67a2.6,2.6,0,0,1-.26,1.27,2.44,2.44,0,0,1-1.8.91c-1.88.3-4.2,0.05-5.06-1.64a4.88,4.88,0,0,1-.37-1.18,35.33,35.33,0,0,1-.82-8.11,20.59,20.59,0,0,1,5.52-1.1,3.15,3.15,0,0,1,2.19.45c0.81,0.65.85,1.85,0.81,2.89Z" transform="translate(-27.09 -26.7)"/><path class="cls-15" d="M507.25,295.44a26.88,26.88,0,0,0-1.2,8.57,1.75,1.75,0,0,0,1,1.79,30,30,0,0,0,8,3.81c1.55,0.47,3.42.74,4.61-.35a4.33,4.33,0,0,0,1.05-1.84,14.34,14.34,0,0,0,.78-4.82,3.75,3.75,0,0,0-.7-2.45,4.28,4.28,0,0,0-1.69-1l-4.19-1.7c-0.62-.25-1.24-0.5-1.87-0.73A23,23,0,0,0,507.25,295.44Z" transform="translate(-27.09 -26.7)"/><path class="cls-15" d="M482,303.63a5.52,5.52,0,0,1,3.2-1.9,19.31,19.31,0,0,1,6.54-.66,2.38,2.38,0,0,1,1,.24,2.5,2.5,0,0,1,.94,1.71,51.54,51.54,0,0,1,1.21,8.6,1.42,1.42,0,0,1-.09.72,1.46,1.46,0,0,1-1.27.57,13.71,13.71,0,0,1-5.77-.34c-0.43-.15-0.84-0.35-1.25-0.54L483,310.34a2.48,2.48,0,0,1-1.72-2.85A6.42,6.42,0,0,1,482,303.63Z" transform="translate(-27.09 -26.7)"/><path class="cls-15" d="M479.75,310.63a2.48,2.48,0,0,0,1.39-2,5,5,0,0,0-1.15-4.1,7.73,7.73,0,0,0-3.9-2.15,17.2,17.2,0,0,0-9.91.31c-0.62,2.1-.54,4.78,1.29,6a6,6,0,0,0,1.91.72,48.68,48.68,0,0,0,9.15,1.33A3.12,3.12,0,0,0,479.75,310.63Z" transform="translate(-27.09 -26.7)"/><path class="cls-15" d="M472.12,314.29a5.3,5.3,0,0,1-2.67,3.94c-1.71.93-3.77,0.84-5.72,0.73a2.66,2.66,0,0,1-2.25-.9,2.59,2.59,0,0,1-.23-1.43q0.09-2.62.32-5.24l7.47-.19a3.7,3.7,0,0,1,2.06.35A2.78,2.78,0,0,1,472.12,314.29Z" transform="translate(-27.09 -26.7)"/><path class="cls-15" d="M485.64,318.21a2.09,2.09,0,0,0,1.21-.06,1.86,1.86,0,0,0,.79-1.73,7.39,7.39,0,0,0-.52-2.85,1.57,1.57,0,0,0-.44-0.68,1.74,1.74,0,0,0-.78-0.28q-4.42-.82-8.9-1.19a7.69,7.69,0,0,0-1.22,2.44,2.63,2.63,0,0,0,.64,2.54,3.91,3.91,0,0,0,2.09.74l3,0.46Z" transform="translate(-27.09 -26.7)"/><path class="cls-15" d="M505.79,316.67a25.83,25.83,0,0,0,.56-7.22,6.75,6.75,0,0,0-5-.93,15.49,15.49,0,0,0-1.11,8.15C502.06,317.29,504.25,317.85,505.79,316.67Z" transform="translate(-27.09 -26.7)"/><path class="cls-15" d="M517.32,317.44a5.2,5.2,0,0,1-4.8-.06,4.6,4.6,0,0,1-2.23-5.33,2.13,2.13,0,0,1,1.9-.42,7,7,0,0,1,4,1.76A4,4,0,0,1,517.32,317.44Z" transform="translate(-27.09 -26.7)"/></g><path class="cls-1" d="M114.7,353.37l6.86,5.78a12.54,12.54,0,0,1-9,4.26q-4.9.07-9.74-4Q97.43,354.84,97,349t4.23-11.32q4.65-5.51,10.41-6.1t11.07,3.89q4.9,4.13,5.71,8.86t-2.55,9.41l-6.93-5.85a4.5,4.5,0,0,0-.88-6.72,4.72,4.72,0,0,0-4.5-1.14q-2.37.66-5,3.79a10.38,10.38,0,0,0-2.79,5.61,5,5,0,0,0,2,4.38,4.78,4.78,0,0,0,3.48,1.29A5.58,5.58,0,0,0,114.7,353.37Z" transform="translate(-27.09 -26.7)"/><path class="cls-1" d="M117.22,370.1l24.79-19,8,5.24-7.41,30.37-7.87-5.13,1.21-3.87-7.87-5.13L125,375.18Zm15.71-1.81,5,3.25L141,361.38Z" transform="translate(-27.09 -26.7)"/><path class="cls-1" d="M150.12,380.25l8.18,4.23a3.72,3.72,0,0,0,.17,2.68,5.21,5.21,0,0,0,2.33,2,5.07,5.07,0,0,0,2.58.69,1.76,1.76,0,0,0,1.57-1q0.74-1.42-2.34-4.14l-0.95-.83q-2.51-2.25-3.91-3.75a13.13,13.13,0,0,1-1.9-2.44,8,8,0,0,1-.92-3.77,8.56,8.56,0,0,1,1-3.84,8.16,8.16,0,0,1,6.1-4.6q4.08-.7,9.22,2t6.85,6.24a9.12,9.12,0,0,1,.12,7.78l-8-4.13a2.8,2.8,0,0,0-.13-2.25,4.65,4.65,0,0,0-2.06-1.79,4.09,4.09,0,0,0-2.24-.59,1.71,1.71,0,0,0-1.36,1q-0.67,1.3,2.33,4l0.4,0.36,1.32,1.16q4,3.52,4.89,5.19a8.47,8.47,0,0,1,1.18,3.95,8.11,8.11,0,0,1-1,3.9,8.91,8.91,0,0,1-6.48,5.1q-4.24.76-9.89-2.16-5.21-2.7-7.05-6.6A9.93,9.93,0,0,1,150.12,380.25Z" transform="translate(-27.09 -26.7)"/><path class="cls-1" d="M172.48,402.06l20.78-23.35,8.87,3.64-1.59,31.22L191.86,410l0.46-4-8.69-3.56-2.54,3.18Zm15.09-4.72,5.5,2.26L194.22,389Z" transform="translate(-27.09 -26.7)"/><path class="cls-1" d="M219.36,419.83l7.87-28.42,11,3.06a39.38,39.38,0,0,1,6.16,2.11,11.71,11.71,0,0,1,3.23,2.24,11.37,11.37,0,0,1,3.09,6.11,18.73,18.73,0,0,1-.66,8.15,17,17,0,0,1-4.09,7.6,11.76,11.76,0,0,1-6.79,3.39,12.59,12.59,0,0,1-3.73-.06,60.57,60.57,0,0,1-6.78-1.59Zm11.12-4.67,2.45,0.68q3.42,0.95,5.16-.21t2.83-5.09q1.06-3.84.16-5.81t-4.15-2.87l-2.57-.71Z" transform="translate(-27.09 -26.7)"/><path class="cls-1" d="M252.32,428.59l5.77-28.92,23.11,4.61-1.38,6.93L266,408.46l-0.77,3.85,11.69,2.33-1.33,6.64-11.68-2.33L263,423.42l14.39,2.87-1.4,7Z" transform="translate(-27.09 -26.7)"/><path class="cls-1" d="M294.17,436.13l13.23-28.32,9.54,0.94,7.41,30.37L315,438.2l-0.71-4-9.34-.93L303.43,437Zm13.11-8.84,5.92,0.59-1.92-10.45Z" transform="translate(-27.09 -26.7)"/><path class="cls-1" d="M329,439.35l0.92-29.47,11.45,0.36a39.32,39.32,0,0,1,6.48.59,11.71,11.71,0,0,1,3.67,1.41,11.37,11.37,0,0,1,4.44,5.21,18.74,18.74,0,0,1,1.29,8.07,17,17,0,0,1-2.17,8.35,11.75,11.75,0,0,1-5.79,4.9,12.61,12.61,0,0,1-3.64.83,60.79,60.79,0,0,1-7,.06Zm9.7-7.17,2.54,0.08q3.54,0.11,5-1.43t1.55-5.62q0.12-4-1.22-5.69t-4.71-1.81l-2.66-.08Z" transform="translate(-27.09 -26.7)"/><path class="cls-1" d="M361.18,425.52q-0.27-7.2,3.69-11.51t11.06-4.58q7.08-.26,11.34,3.75t4.52,11.21q0.27,7.18-3.68,11.5t-11,4.58q-7.1.26-11.37-3.76T361.18,425.52Zm9.54-.35q0.16,4.18,1.63,6.09a5,5,0,0,0,4.45,1.8,5,5,0,0,0,4.27-2.11q1.31-2,1.15-6.2t-1.61-6.12a5,5,0,0,0-4.41-1.79A5,5,0,0,0,371.9,419Q370.57,421,370.73,425.17Z" transform="translate(-27.09 -26.7)"/><path class="cls-1" d="M398.56,438.58l-3.08-29.33,14-1.47q6.59-.69,9.61,1t3.5,6.17a8.06,8.06,0,0,1-.69,4.58,7.78,7.78,0,0,1-3.27,3.18,5.69,5.69,0,0,1,3.78,1.67,7.93,7.93,0,0,1,1.66,4.34l0.59,4.06a0.3,0.3,0,0,0,0,.1q0.24,1.75,1,1.74l0.12,1.09-9.5,1q-0.37-1-.58-1.8a8,8,0,0,1-.26-1.21l-0.31-2.93a4.57,4.57,0,0,0-1.23-3.1,4.25,4.25,0,0,0-3.2-.6l-4,.42,1.06,10.11Zm7.54-17.7,4.28-.45a5.72,5.72,0,0,0,3-.93,2.44,2.44,0,0,0,.63-2.21,2.49,2.49,0,0,0-1.08-2.07,6.35,6.35,0,0,0-3.41-.26l-4,.42Z" transform="translate(-27.09 -26.7)"/><path class="cls-1" d="M428.69,435.34l5.18-30.83,9.45-1.64,15.26,27.28-9.25,1.6-1.75-3.66-9.25,1.6-0.46,4Zm10.27-12,5.86-1-4.64-9.56Z" transform="translate(-27.09 -26.7)"/><path class="cls-1" d="M463.12,429.15L456,400.53l11.11-2.76a39.35,39.35,0,0,1,6.4-1.19,11.71,11.71,0,0,1,3.92.36,11.37,11.37,0,0,1,5.69,3.81,18.72,18.72,0,0,1,3.43,7.42,17,17,0,0,1,.17,8.63,11.75,11.75,0,0,1-4.25,6.28,12.6,12.6,0,0,1-3.28,1.78,60.48,60.48,0,0,1-6.68,1.95Zm7.39-9.53L473,419q3.44-.85,4.39-2.72t0-5.83q-1-3.87-2.72-5.14t-5-.46l-2.58.64Z" transform="translate(-27.09 -26.7)"/><path class="cls-1" d="M490.4,407.1q-2.3-6.83.26-12.09t9.3-7.53q6.72-2.26,11.94.37t7.52,9.46q2.3,6.81-.26,12.08t-9.27,7.53q-6.73,2.27-12-.37T490.4,407.1Zm9-3.05q1.34,4,3.29,5.38a5,5,0,0,0,4.78.46,5,5,0,0,0,3.49-3.24q0.68-2.29-.66-6.27T507.07,395a5,5,0,0,0-4.74-.46,5,5,0,0,0-3.53,3.26Q498.1,400.06,499.45,404Z" transform="translate(-27.09 -26.7)"/><path class="cls-1" d="M530.2,408.81l-11.89-27,12.92-5.69q6.06-2.67,9.46-2t5.22,4.81a8.06,8.06,0,0,1,.75,4.57,7.78,7.78,0,0,1-2.14,4,5.69,5.69,0,0,1,4.11.43,7.93,7.93,0,0,1,2.91,3.63l1.8,3.69,0.06,0.08q0.77,1.59,1.51,1.35l0.44,1-8.74,3.85q-0.67-.87-1.1-1.54a8.07,8.07,0,0,1-.62-1.07l-1.19-2.69a4.56,4.56,0,0,0-2.12-2.58,4.25,4.25,0,0,0-3.23.41l-3.68,1.62,4.1,9.31ZM532,389.65l3.94-1.74a5.71,5.71,0,0,0,2.61-1.82,2.44,2.44,0,0,0-.07-2.3,2.49,2.49,0,0,0-1.66-1.64,6.35,6.35,0,0,0-3.32.8l-3.72,1.64Z" transform="translate(-27.09 -26.7)"/><path class="cls-1" d="M560.73,394.92l-14.36-25.75,20.58-11.48,3.44,6.17-12.31,6.87,1.91,3.43,10.41-5.8,3.3,5.91-10.41,5.8,2.22,4,12.82-7.15,3.49,6.26Z" transform="translate(-27.09 -26.7)"/><path class="cls-1" d="M581.19,372.81l7.53-5.3a3.72,3.72,0,0,0,2.46,1.09,5.2,5.2,0,0,0,2.84-1.15,5.08,5.08,0,0,0,1.81-2,1.76,1.76,0,0,0-.13-1.83q-0.92-1.31-4.76.17l-1.17.46q-3.15,1.19-5.13,1.74a13.14,13.14,0,0,1-3,.56,8,8,0,0,1-3.77-.92,8.55,8.55,0,0,1-2.93-2.68,8.16,8.16,0,0,1-1.27-7.53q1.26-3.95,6-7.28t8.69-3.2a9.12,9.12,0,0,1,7,3.48l-7.35,5.18a2.8,2.8,0,0,0-2.06-.92,4.64,4.64,0,0,0-2.54,1,4.1,4.1,0,0,0-1.56,1.71,1.71,1.71,0,0,0,.27,1.67q0.84,1.2,4.58-.24l0.51-.19,1.63-.64q5-1.9,6.86-1.94a8.48,8.48,0,0,1,4,.77,8.12,8.12,0,0,1,3,2.69,8.91,8.91,0,0,1,1.53,8.1q-1.28,4.11-6.48,7.78-4.8,3.38-9.11,3.21A9.93,9.93,0,0,1,581.19,372.81Z" transform="translate(-27.09 -26.7)"/><path class="cls-1" d="M159.31,80.07l3.46-1.74,12.3,24.52-3.46,1.74Z" transform="translate(-27.09 -26.7)"/><path class="cls-1" d="M198.54,89.4q2.06,4.74.53,8t-7,5.58a12.21,12.21,0,0,1-7.05,1.21,6.33,6.33,0,0,1-4.49-3.38l3.8-1.65q1.82,2.77,6.46.76a15.58,15.58,0,0,0,3.11-1.72,5.66,5.66,0,0,0,1.72-1.95,4.39,4.39,0,0,0,.45-2.31,8.58,8.58,0,0,0-.75-2.78L195,90.5a10.06,10.06,0,0,1-2.16,3.83,10.8,10.8,0,0,1-3.69,2.51,12.13,12.13,0,0,1-4.38,1,10.32,10.32,0,0,1-4-.62,9.59,9.59,0,0,1-3.39-2.17,12.24,12.24,0,0,1-3.46-8,9.79,9.79,0,0,1,.72-4A10.19,10.19,0,0,1,177,79.76a12,12,0,0,1,3.73-2.46,10.66,10.66,0,0,1,4.7-1,7.89,7.89,0,0,1,4.08,1.32l-1.31-3,3.35-1.45Zm-20,.49a7.24,7.24,0,0,0,4,4.2,8.88,8.88,0,0,0,10.22-4.45,8.31,8.31,0,0,0-4.34-10,8.84,8.84,0,0,0-10.22,4.43A7.3,7.3,0,0,0,178.5,89.88Z" transform="translate(-27.09 -26.7)"/><path class="cls-1" d="M195,64.33L198.39,63,208,88.74,204.61,90Z" transform="translate(-27.09 -26.7)"/><path class="cls-1" d="M212.81,77.12a6.49,6.49,0,0,0,1.32,2.36A6.11,6.11,0,0,0,216.2,81a6.79,6.79,0,0,0,2.6.58,8.71,8.71,0,0,0,3-.46,8.23,8.23,0,0,0,3.63-2.18,5.07,5.07,0,0,0,1.4-3.28l4.09-1.32a9.71,9.71,0,0,1-2.1,6.15,12.09,12.09,0,0,1-6,3.88,13,13,0,0,1-4.65.69,10.09,10.09,0,0,1-4-1A9.55,9.55,0,0,1,211,81.49a12.19,12.19,0,0,1-2.12-4,11.92,11.92,0,0,1-.61-4.49A9.64,9.64,0,0,1,212,65.86a13,13,0,0,1,4.15-2.16,13.7,13.7,0,0,1,4.68-.73,9.14,9.14,0,0,1,7.1,3.55,12.86,12.86,0,0,1,2.13,4.1l0.22,0.69L212.76,77ZM225.69,70a6.23,6.23,0,0,0-3.44-3.16,7.59,7.59,0,0,0-5.07.08A7.68,7.68,0,0,0,213,69.83a6.3,6.3,0,0,0-1,4.61Z" transform="translate(-27.09 -26.7)"/><path class="cls-1" d="M237.74,72.23a4.19,4.19,0,0,0,2.48,2.46,7.18,7.18,0,0,0,4.31,0,10.58,10.58,0,0,0,4.37-2,2.51,2.51,0,0,0,1-2.58,1.81,1.81,0,0,0-1.27-1.42,8.46,8.46,0,0,0-2.93-.08l-4.61.37a29.32,29.32,0,0,1-3.19.12,7.36,7.36,0,0,1-2.4-.42,4.07,4.07,0,0,1-1.7-1.17,5.3,5.3,0,0,1-1-2.15,5.59,5.59,0,0,1,1-5.27q1.81-2.18,6.22-3.32t7.14-.09a5.75,5.75,0,0,1,3.5,4.19l0,0.15-3.46.9a3.45,3.45,0,0,0-2.31-2.31,8.37,8.37,0,0,0-4.32.22A8.59,8.59,0,0,0,237,61.49a2.21,2.21,0,0,0-.76,2.3,2,2,0,0,0,1.58,1.61,14.35,14.35,0,0,0,3.55,0L245.8,65a19.81,19.81,0,0,1,3,0,6.57,6.57,0,0,1,2.22.52,3.85,3.85,0,0,1,1.55,1.27,6.42,6.42,0,0,1,1,2.17,5.52,5.52,0,0,1-1.27,5.33q-2,2.32-6.9,3.58-4.6,1.19-7.42.08a7.28,7.28,0,0,1-4.1-4.67Z" transform="translate(-27.09 -26.7)"/><path class="cls-1" d="M253.85,51.38l-1-4.34,3.56-.78,1,4.34Zm0.57,2.6L258,53.2l4.36,19.86-3.56.78Z" transform="translate(-27.09 -26.7)"/><path class="cls-1" d="M282.46,66a8.69,8.69,0,0,1-3,3.3,12.66,12.66,0,0,1-4.79,1.8,9.14,9.14,0,0,1-6.06-.58,5.46,5.46,0,0,1-2.77-4.06,5.52,5.52,0,0,1,2-5.38,7.83,7.83,0,0,1,2.37-1.25q1.56-.57,3.84-1.24,1.65-.49,2.87-0.82a10.41,10.41,0,0,0,2-.74,2.74,2.74,0,0,0,1.13-1,2,2,0,0,0,.17-1.44,2.5,2.5,0,0,0-1.65-2.12,8.65,8.65,0,0,0-4.09,0,9,9,0,0,0-4.35,1.7,3.63,3.63,0,0,0-1.09,3.32l-3.78.67q-0.89-7.14,8.39-8.79A21.91,21.91,0,0,1,278,49a7.26,7.26,0,0,1,3,.64,4.63,4.63,0,0,1,1.94,1.78,8.64,8.64,0,0,1,1.05,3l1.44,8.08a5.35,5.35,0,0,0,.76,2.2,1.48,1.48,0,0,0,1.56.44,6.32,6.32,0,0,0,1-.3l0.52,2.92q-0.84.27-1.54,0.43t-1.23.26a3.57,3.57,0,0,1-2.52-.3A4.06,4.06,0,0,1,282.46,66Zm-1.39-7.16A7.48,7.48,0,0,1,278.93,60q-1.45.59-3.69,1.25l-2.53.82a7.65,7.65,0,0,0-1.81.84,2.73,2.73,0,0,0-1,1.1,2.52,2.52,0,0,0-.13,1.53,2.72,2.72,0,0,0,1.53,2.06,5.48,5.48,0,0,0,3.41.26,12,12,0,0,0,3.08-1,9.28,9.28,0,0,0,2.26-1.46,5.12,5.12,0,0,0,1.31-1.78,3.29,3.29,0,0,0,.24-1.9Z" transform="translate(-27.09 -26.7)"/><path class="cls-1" d="M331.53,53a12.5,12.5,0,0,1-1,4.78,11.78,11.78,0,0,1-2.61,3.81,13,13,0,0,1-4,2.63,17.12,17.12,0,0,1-5.27,1.25,18.14,18.14,0,0,1-6.35-.48,13.24,13.24,0,0,1-5-2.49A12.48,12.48,0,0,1,304,58.17a17.75,17.75,0,0,1-1-11.85,12.47,12.47,0,0,1,2.56-4.8,13.24,13.24,0,0,1,4.46-3.3,18.25,18.25,0,0,1,6.22-1.56,17,17,0,0,1,5.33.32,13.15,13.15,0,0,1,4.33,1.82A11,11,0,0,1,329,41.91a11.25,11.25,0,0,1,1.66,4.22l-4,.35a7.8,7.8,0,0,0-3.53-4.88,10.64,10.64,0,0,0-6.61-1.3,13.55,13.55,0,0,0-4.57,1.14,9.41,9.41,0,0,0-3.24,2.42,9.13,9.13,0,0,0-1.85,3.57,14.16,14.16,0,0,0,.77,9,9,9,0,0,0,2.45,3.2,9.58,9.58,0,0,0,3.63,1.82,13.56,13.56,0,0,0,4.7.34,12.08,12.08,0,0,0,3.66-.87,9.41,9.41,0,0,0,2.84-1.81,8.4,8.4,0,0,0,1.87-2.6,8.49,8.49,0,0,0,.77-3.21Z" transform="translate(-27.09 -26.7)"/><path class="cls-1" d="M355.87,63l-3.61.09-0.09-3.46a10.43,10.43,0,0,1-8.31,4.24q-4.08.1-6.19-2.2a5.76,5.76,0,0,1-1.43-2.91,27,27,0,0,1-.35-3.93l-0.3-11.66,3.65-.09,0.3,11.81a7.55,7.55,0,0,0,1.18,4.47q1.11,1.4,3.86,1.33a8.58,8.58,0,0,0,3-.59,6.78,6.78,0,0,0,3.88-3.92,7.89,7.89,0,0,0,.5-3.09l-0.26-10.33,3.65-.09Z" transform="translate(-27.09 -26.7)"/><path class="cls-1" d="M376.61,60.24A8.7,8.7,0,0,1,373,62.86a12.67,12.67,0,0,1-5.05.8,9.13,9.13,0,0,1-5.82-1.79,5.45,5.45,0,0,1-1.9-4.54,5.52,5.52,0,0,1,3.06-4.86,7.82,7.82,0,0,1,2.57-.75q1.65-.24,4-0.44l3-.22a10.43,10.43,0,0,0,2.12-.32,2.74,2.74,0,0,0,1.29-.71,2,2,0,0,0,.46-1.37,2.5,2.5,0,0,0-1.19-2.41,8.64,8.64,0,0,0-4-.81,9,9,0,0,0-4.6.79,3.63,3.63,0,0,0-1.73,3l-3.84-.1q0.57-7.17,10-6.92a21.9,21.9,0,0,1,4.3.48,7.26,7.26,0,0,1,2.82,1.23A4.64,4.64,0,0,1,380,46.07a8.65,8.65,0,0,1,.42,3.17l-0.22,8.21a5.35,5.35,0,0,0,.3,2.31,1.48,1.48,0,0,0,1.44.74,6.38,6.38,0,0,0,1.07-.09l-0.08,3q-0.88.09-1.6,0.11t-1.25,0a3.57,3.57,0,0,1-2.4-.81A4.06,4.06,0,0,1,376.61,60.24Zm0.08-7.3a7.49,7.49,0,0,1-2.35.75q-1.53.28-3.86,0.49l-2.64.29a7.68,7.68,0,0,0-1.94.46,2.74,2.74,0,0,0-1.21.88,2.52,2.52,0,0,0-.44,1.47,2.72,2.72,0,0,0,1.08,2.33,5.47,5.47,0,0,0,3.29.94,12,12,0,0,0,3.21-.31,9.29,9.29,0,0,0,2.5-1A5.12,5.12,0,0,0,376,57.79a3.28,3.28,0,0,0,.62-1.81Z" transform="translate(-27.09 -26.7)"/><path class="cls-1" d="M407.05,65.44l-3.71-.3,0.24-3a9.78,9.78,0,0,1-8.13,2.93A12.13,12.13,0,0,1,391.12,64a9.7,9.7,0,0,1-5.2-6,12.26,12.26,0,0,1,.69-8.67,9.59,9.59,0,0,1,2.5-3.15,10.32,10.32,0,0,1,3.6-1.88,12.09,12.09,0,0,1,4.48-.42,10.63,10.63,0,0,1,4.27,1.18A10.12,10.12,0,0,1,404.71,48l0.81-10.19,3.71,0.3Zm-2.91-10.35a7.09,7.09,0,0,0-1.56-5.49,8.66,8.66,0,0,0-10.85-.89,7.12,7.12,0,0,0-2.4,5.19,7.12,7.12,0,0,0,1.54,5.5,8.67,8.67,0,0,0,10.85.85A7.09,7.09,0,0,0,404.14,55.09Z" transform="translate(-27.09 -26.7)"/><path class="cls-1" d="M414.7,45.92l3.58,0.44-0.42,3.39a9.49,9.49,0,0,1,3.66-2.65,8.65,8.65,0,0,1,4.27-.5,4.51,4.51,0,0,1,.86.18,3,3,0,0,1,.72.36L426.9,51a10,10,0,0,0-1.36-.49,8.43,8.43,0,0,0-1.2-.24,5.89,5.89,0,0,0-2.54.22,6.55,6.55,0,0,0-2.22,1.22,6.92,6.92,0,0,0-1.68,2.09,8.18,8.18,0,0,0-.87,2.88l-1.23,9.88-3.62-.45Z" transform="translate(-27.09 -26.7)"/><path class="cls-1" d="M442.92,67.41A8.69,8.69,0,0,1,439,69.5a12.66,12.66,0,0,1-5.11.08A9.14,9.14,0,0,1,428.36,67a5.45,5.45,0,0,1-1.25-4.76,5.52,5.52,0,0,1,3.71-4.38,7.84,7.84,0,0,1,2.65-.38q1.66,0,4,.12l3,0.19a10.4,10.4,0,0,0,2.15,0,2.73,2.73,0,0,0,1.38-.52,2,2,0,0,0,.64-1.3,2.5,2.5,0,0,0-.84-2.55A8.65,8.65,0,0,0,440,52a9,9,0,0,0-4.67.14,3.63,3.63,0,0,0-2.14,2.76l-3.78-.64q1.57-7,10.86-5.45a21.93,21.93,0,0,1,4.19,1.07A7.27,7.27,0,0,1,447,51.54a4.64,4.64,0,0,1,1.23,2.33,8.66,8.66,0,0,1,0,3.19l-1.37,8.09a5.35,5.35,0,0,0,0,2.33,1.48,1.48,0,0,0,1.33.94,6.44,6.44,0,0,0,1.07.06l-0.49,2.92q-0.88,0-1.6-.12t-1.24-.17A3.57,3.57,0,0,1,443.65,70,4.06,4.06,0,0,1,442.92,67.41ZM444,60.2a7.49,7.49,0,0,1-2.43.42q-1.56.07-3.89-.06L435,60.48a7.65,7.65,0,0,0-2,.19,2.73,2.73,0,0,0-1.32.7,2.52,2.52,0,0,0-.64,1.39,2.72,2.72,0,0,0,.75,2.46A5.47,5.47,0,0,0,435,66.61a12,12,0,0,0,3.22.14,9.27,9.27,0,0,0,2.62-.62,5.14,5.14,0,0,0,1.83-1.23,3.29,3.29,0,0,0,.87-1.7Z" transform="translate(-27.09 -26.7)"/><path class="cls-1" d="M456.24,52.42l3.52,0.8L459,56.63a11.54,11.54,0,0,1,4.21-2.1,10.34,10.34,0,0,1,4.89,0q4,0.91,5.47,3.62a5.76,5.76,0,0,1,.67,3.17,27,27,0,0,1-.63,3.89L471,76.62l-3.56-.81,2.62-11.52a7.55,7.55,0,0,0,0-4.63q-0.73-1.63-3.41-2.24a8.58,8.58,0,0,0-3.06-.17,6.77,6.77,0,0,0-4.72,2.84A7.9,7.9,0,0,0,457.58,63l-2.29,10.08-3.56-.81Z" transform="translate(-27.09 -26.7)"/><path class="cls-1" d="M496.77,81.25q-1.45,5-4.68,6.45t-9-.19a12.22,12.22,0,0,1-6.2-3.58,6.33,6.33,0,0,1-1.29-5.47l4,1.16q-0.37,3.3,4.48,4.72a15.59,15.59,0,0,0,3.49.67,5.66,5.66,0,0,0,2.57-.4A4.38,4.38,0,0,0,492,83.14a8.56,8.56,0,0,0,1.2-2.62l0.19-.66a10.06,10.06,0,0,1-4.11,1.57,10.81,10.81,0,0,1-4.44-.43,12.13,12.13,0,0,1-4-2,10.32,10.32,0,0,1-2.7-3,9.58,9.58,0,0,1-1.22-3.84,12.24,12.24,0,0,1,2.45-8.35,9.8,9.8,0,0,1,3.1-2.6A10.2,10.2,0,0,1,486.35,60a12,12,0,0,1,4.44.49A10.68,10.68,0,0,1,495,62.79a7.9,7.9,0,0,1,2.29,3.62l0.93-3.17,3.5,1ZM481.05,68.81a7.24,7.24,0,0,0,.4,5.8,8.88,8.88,0,0,0,10.7,3.11,7.22,7.22,0,0,0,3.48-4.64,7.27,7.27,0,0,0-.42-5.82,8.84,8.84,0,0,0-10.69-3.13A7.31,7.31,0,0,0,481.05,68.81Z" transform="translate(-27.09 -26.7)"/><path class="cls-1" d="M519.29,92.13l-3.39-1.24,1.19-3.25a10.43,10.43,0,0,1-9.29.89q-3.83-1.4-4.95-4.32A5.78,5.78,0,0,1,502.6,81a27.1,27.1,0,0,1,1.12-3.78l4-11,3.43,1.26L507.1,78.6a7.55,7.55,0,0,0-.54,4.6q0.52,1.71,3.1,2.65a8.59,8.59,0,0,0,3,.56,6.78,6.78,0,0,0,5-2.22,7.9,7.9,0,0,0,1.6-2.69l3.56-9.7L526.29,73Z" transform="translate(-27.09 -26.7)"/><path class="cls-1" d="M534.8,69l3.36,1.42L527.48,95.66l-3.36-1.42Z" transform="translate(-27.09 -26.7)"/><path class="cls-1" d="M547.87,101.66a8.69,8.69,0,0,1-4.37.89,12.66,12.66,0,0,1-4.93-1.36,9.14,9.14,0,0,1-4.56-4,5.45,5.45,0,0,1,.15-4.92,5.52,5.52,0,0,1,4.8-3.16,7.83,7.83,0,0,1,2.65.38q1.6,0.46,3.84,1.25,1.62,0.58,2.8,1a10.45,10.45,0,0,0,2.07.58,2.74,2.74,0,0,0,1.47-.11,2,2,0,0,0,1-1.06,2.5,2.5,0,0,0-.09-2.68,8.66,8.66,0,0,0-3.32-2.39,9,9,0,0,0-4.52-1.18,3.63,3.63,0,0,0-2.83,2l-3.45-1.68q3.48-6.29,12-2.17a21.92,21.92,0,0,1,3.72,2.21,7.26,7.26,0,0,1,2.06,2.29,4.64,4.64,0,0,1,.52,2.58,8.67,8.67,0,0,1-.92,3.06l-3.59,7.38a5.34,5.34,0,0,0-.68,2.23,1.48,1.48,0,0,0,1,1.27,6.35,6.35,0,0,0,1,.36l-1.3,2.67q-0.84-.28-1.5-0.56t-1.14-.51a3.57,3.57,0,0,1-1.86-1.73A4.07,4.07,0,0,1,547.87,101.66ZM551,95.05a7.49,7.49,0,0,1-2.45-.28q-1.51-.38-3.72-1.15l-2.52-.83a7.68,7.68,0,0,0-2-.38,2.74,2.74,0,0,0-1.46.3,2.53,2.53,0,0,0-1,1.16,2.72,2.72,0,0,0,0,2.57,5.47,5.47,0,0,0,2.61,2.22,12,12,0,0,0,3.05,1,9.27,9.27,0,0,0,2.69.14,5.11,5.11,0,0,0,2.1-.67,3.27,3.27,0,0,0,1.31-1.39Z" transform="translate(-27.09 -26.7)"/><path class="cls-1" d="M564.9,91.26L568,93.05l-1.7,3a9.49,9.49,0,0,1,4.4-1,8.65,8.65,0,0,1,4.14,1.19,4.51,4.51,0,0,1,.72.5,3.06,3.06,0,0,1,.53.61l-1.93,3.36a9.94,9.94,0,0,0-1.06-1,8.4,8.4,0,0,0-1-.69,5.9,5.9,0,0,0-2.42-.77,6.54,6.54,0,0,0-2.52.27,6.93,6.93,0,0,0-2.35,1.28,8.19,8.19,0,0,0-1.92,2.32L558,110.72l-3.17-1.81Z" transform="translate(-27.09 -26.7)"/></svg>