<?xml version="1.0" encoding="utf-8"?>
<!-- Generator: Adobe Illustrator 22.0.0, SVG Export Plug-In . SVG Version: 6.00 Build 0)  -->
<svg version="1.1" xmlns="http://www.w3.org/2000/svg" xmlns:xlink="http://www.w3.org/1999/xlink" x="0px" y="0px"
	 viewBox="0 0 720 460" enable-background="new 0 0 720 460" xml:space="preserve">
<g id="Guias" display="none">
</g>
<g id="Fondo_1_">
	<g>
		<path fill="#E30613" d="M54.5,227.9c0,47.8,30.6,91.4,80.7,124L284.1,50.5C152.1,70.7,54.5,142.5,54.5,227.9z"/>
		<path fill="#1D71B8" d="M356.2,44.8c-26,0-51.3,2-75.4,5.7L132.5,352c36,23.5,82.1,41.4,134.2,51.1L439.5,51.7
			C413,47.2,385.1,44.8,356.2,44.8z"/>
		<path fill="#FFED00" d="M602.4,98.6c-43.6-23.8-99.3-41.2-162-49.3l-192,366.4c32.9,4.7,67.7,6.9,103.8,6.1
			c29.3-0.6,57.7-3.2,84.8-7.4L602.4,98.6z"/>
		<path fill="#951B81" d="M676.9,226.2c0-48-31.2-91.6-82.3-124.3L443.4,403.8C577.6,383.7,676.9,311.8,676.9,226.2z"/>
	</g>
</g>
<g id="Adorador">
	
		<ellipse transform="matrix(1 -7.415277e-03 7.415277e-03 1 -0.7745 2.7591)" fill="#FFFFFF" cx="371.7" cy="105.8" rx="25" ry="29"/>
	<path fill="#FFFFFF" d="M389.9,143.6c-10.8,3.9-33.3,2.4-46.7-0.7c-13.9-3.3-38.5-26.6-55.1-36.5c-10.8-6.4-21,3.6-10.7,11.3
		c14.2,10.5,37.7,35.9,50.5,47.7c9.3,8.6,9.3,6.7,9.3,17.6c0.1,16.3-6.5,63.3-6.5,63.3l62.3-1.1c0,0-0.8-52.5,2.3-61.9
		c6.1-18.2,39.7-47.6,56.1-67.3c5.9-7-3.2-16.6-10.6-10.8C420.7,121.3,405.5,137.9,389.9,143.6z"/>
</g>
<g id="Anillo">
	<path id="Anillo_1_" fill="#FFFFFF" stroke="#FCCB00" stroke-width="3" stroke-miterlimit="10" d="M357.9,20.2
		C176,20.2,28.6,114.1,28.6,230S176,439.7,357.9,439.7S687.1,345.8,687.1,230S539.7,20.2,357.9,20.2z M362.1,395.5
		c-155.8,0-278.2-71.3-278.2-165.6s120.2-164.3,276-164.3S634.5,135.7,634.5,230S517.9,395.5,362.1,395.5z"/>
</g>
<g id="Iglesia">
	<polygon fill="#A66735" stroke="#FCCB00" stroke-miterlimit="10" points="201.3,145.9 196.9,140.7 268,140.7 281.8,167.5 
		277.5,167.5 266.6,145.8 	"/>
	<polygon fill="#893C13" stroke="#FCCB00" stroke-miterlimit="10" points="201.9,312.5 201.3,145.9 266.6,145.8 266.6,312.5 	"/>
	<polygon fill="#8D5601" stroke="#FCCB00" stroke-miterlimit="10" points="277.5,167.5 266.6,145.8 266.6,300.9 277.6,300.9 	"/>
	<path fill="#FFFFFF" stroke="#FCCB00" stroke-miterlimit="10" d="M201.7,205.7h-36.8v24.7c7.6,0,5.8,10.2,5.8,10.2v60.7h30.5
		L201.7,205.7z"/>
	<polygon fill="#8D5601" stroke="#FCCB00" stroke-miterlimit="10" points="460.2,301.2 460.2,145.9 442.3,167.5 443.3,300.9 	"/>
	<linearGradient id="SVGID_1_" gradientUnits="userSpaceOnUse" x1="364.1285" y1="221.8442" x2="364.1285" y2="172.5126">
		<stop  offset="0" style="stop-color:#C58511"/>
		<stop  offset="0" style="stop-color:#C68714"/>
		<stop  offset="0" style="stop-color:#CA8E1C"/>
		<stop  offset="0" style="stop-color:#D29928"/>
		<stop  offset="0" style="stop-color:#DCAA3A"/>
		<stop  offset="0" style="stop-color:#E9BF54"/>
		<stop  offset="0" style="stop-color:#F0CB62"/>
	</linearGradient>
	<polygon fill="url(#SVGID_1_)" stroke="#FCCB00" stroke-miterlimit="10" points="268.2,172.5 460.2,172.5 460.2,221.8 268.1,221.8 
			"/>
	<linearGradient id="SVGID_2_" gradientUnits="userSpaceOnUse" x1="268.0945" y1="226.7849" x2="460.1624" y2="226.7849">
		<stop  offset="0" style="stop-color:#F9F5DD"/>
		<stop  offset="4.939833e-02" style="stop-color:#F9F4D9"/>
		<stop  offset="0.5" style="stop-color:#F9EEAC"/>
		<stop  offset="1" style="stop-color:#F1E8AF"/>
	</linearGradient>
	<polygon fill="url(#SVGID_2_)" stroke="#FCCB00" stroke-miterlimit="10" points="442.9,232.6 277.6,232.6 268.1,220.9 460.2,220.9 
			"/>
	<polyline fill="#FFFFFF" stroke="#FCCB00" stroke-miterlimit="10" points="418.2,301.2 418.3,306.1 316.6,306.1 316.6,300.9 
		277.6,300.9 277.6,232.6 442.9,232.6 443.3,300.9 418.5,301.3 	"/>
	<path fill="#A0220A" stroke="#FCCB00" stroke-miterlimit="10" d="M335.7,306.1h56.2l-1.3-53.9c0,0-27.9-21.8-54.9-1V306.1z"/>
	<polygon fill="#893C13" stroke="#FCCB00" stroke-miterlimit="10" points="460.6,145.3 525.7,145.3 525.7,311.9 460.7,312.2 	"/>
	<polygon fill="#A66735" stroke="#FCCB00" stroke-miterlimit="10" points="530,140.7 525.7,145.3 460.6,145.3 442.3,167.5 
		437.7,167.5 459.3,140.6 	"/>
	<polygon fill="#FFFFFF" stroke="#FCCB00" stroke-miterlimit="10" points="268,127.5 257.5,127.5 257.5,132.1 251.3,132.1 
		251.3,127.5 237.9,127.6 237.9,132.1 230.7,132.1 230.6,127.5 217,127.5 217.1,132.1 208.1,132.1 208.1,127.5 196.9,127.5 
		196.9,132.1 196.9,140.7 268,140.7 281.8,167.5 281.7,161.7 281.7,157.4 	"/>
	<polygon fill="#FFFFFF" stroke="#FCCB00" stroke-miterlimit="10" points="529.9,132.3 529.9,127.7 515.4,127.6 515.2,132.2 
		509.6,132.2 509.6,127.7 496,127.7 495.9,132.1 489.9,132.3 489.9,127.8 476.8,127.6 476.6,132.1 471.5,132.3 471.6,127.7 
		459.3,127.6 437.7,156.8 437.7,167.5 459.3,140.6 530,140.7 530,132.3 	"/>
	<path fill="none" stroke="#FCCB00" stroke-miterlimit="10" d="M442.3,171.6"/>
	<path fill="none" stroke="#FCCB00" stroke-miterlimit="10" d="M442.3,167.5"/>
	<path fill="#FFFFFF" stroke="#FCCB00" stroke-miterlimit="10" d="M470.1,342.7c-15.7-5.2-51.6-41.5-51.6-41.5l-0.1,14.1H316.5
		c0.5-0.8,0.8-1.2,0.8-1.2l0-0.1l100.7-0.8v-4.8H317.1l-0.2-6.1c0,0-31.4,36.1-47.3,43.3c-2.8,1.2-5.2,0.7-8.4,0.8
		c-5.1,0.1-8-4.4-8-4.4l1,12.9c0,0,1.8,2.5,6.7,4.2c8.1,2.8,15.8,0.8,21.3-2.8c2.1-1.3,4.4-3.4,6.9-5.9v4.5h168.2
		c1.2,1.1,2,1.7,2.3,1.9c5.5,2.3,16.1,2.4,20.5,2.3c6.5-0.3,10.8-5.2,10.8-5.2v-11.2C486.4,344.6,479,345.7,470.1,342.7z
		 M314.4,318.4v0.4l107.1-0.2c0.7,0.7,1.4,1.5,2.3,2.4l-110.9-0.2C313.4,319.9,313.9,319.1,314.4,318.4z M309.9,324.8L309.9,324.8
		l116.9,0.3v-0.9c0.9,0.9,1.8,1.9,2.8,2.9l-120.9-0.4C309.1,326,309.5,325.4,309.9,324.8z M305.5,330.8l127.1,1.2l-0.3-2.1
		c1.1,1.2,2.3,2.4,3.5,3.6l-131.6-0.9C304.7,332,305.1,331.4,305.5,330.8z M299.8,338.3l139.6,0v-1.2c1.3,1.3,2.6,2.6,3.9,3.9
		L299,339.8h-0.5C299,339.3,299.4,338.8,299.8,338.3z M291.1,348.5c2.2-2.3,4.2-4.6,6.4-7.4l0.3,4.5H447v-0.8
		c1.3,1.3,2.5,2.5,3.6,3.6H291.1z"/>
	<path fill="#FFFFFF" stroke="#FCCB00" stroke-miterlimit="10" d="M525.7,205.1h36.8v24.7c-7.6,0-5.8,10.2-5.8,10.2v60.7h-30.5
		L525.7,205.1z"/>
</g>
<g id="Capa_7">
	<g id="Piedras-1">
		<path fill="#FFEBA0" d="M204.9,156.5c0.3,0.5,0.2,1.2,0.3,1.8c0.2,0.9,1,1.5,1.8,1.7c0.8,0.2,1.7,0.1,2.6,0c0.5-0.1,1-0.1,1.3-0.5
			c0.2-0.2,0.3-0.5,0.4-0.7c0.6-1.7,1.2-3.4,1.8-5.1c0.9,0.1,1.8,0,2.5-0.7c0.6-0.6,0.9-1.7,0.4-2.4c-0.7-0.5-1.4-1-2.2-1.2
			c-0.7-0.2-1.4-0.2-2.1-0.2c-1.4,0-2.7,0-4.1,0.1c-1.3,0-2.7,0-4,0.5c-1.3,0.4-2.5,1.4-2.9,2.6c-0.4,1.3,0.2,2.9,1.5,3.3
			C203.2,155.9,204.4,155.7,204.9,156.5z"/>
		<path fill="#FFEBA0" d="M227.5,163.7c1.4-0.6,2.8-1.3,3.5-2.7c1.1-2.2-0.3-5.1,1.2-7c-1.9,0.3-3.8,0.2-5.7-0.3
			c-1.6-0.4-3.3-1-5-0.6c-1.6,0.4-2.8,1.7-3.5,3.2c-0.6,1.1-1,2.4-0.8,3.7c0.6,0.1,1.3,0.2,1.9,0.2c0.2,0,0.3,0,0.5,0.1
			c0.2,0.1,0.3,0.4,0.4,0.6c0.9,1.9,2.7,3.7,4.8,3.6C225.7,164.5,226.6,164,227.5,163.7z"/>
		<path fill="#FFEBA0" d="M240.4,147.7c-0.5-1-1.9-0.9-3-0.7c-1.6,0.4-3.1,1-4.6,1.7c-0.3,0.2-0.7,0.3-1.1,0.2
			c-0.2-0.1-0.4-0.4-0.6-0.5c-0.3-0.2-0.7-0.2-1.1-0.2c-1.5,0-2.9,0-4.4,0c-0.8,1.5-0.2,3.6,1.2,4.5c1.1,0.7,2.5,0.7,3.8,0.7
			c1.8,0,3.7-0.1,5.4-0.6s3.4-1.7,4.1-3.4C240.5,148.8,240.7,148.2,240.4,147.7z"/>
		<path fill="#FFEBA0" d="M202.2,168.4c-0.8-1-0.7-2.6-0.2-3.7c0.2-0.4,0.5-0.9,0.9-1.1c0.3-0.2,0.6-0.2,1-0.2
			c4.9-0.6,9.8-0.8,14.6-0.5c0.3,1.4,0.4,3.2-0.8,3.9c-0.5,0.3-1,0.3-1.5,0.5c-1.4,0.4-2.4,1.5-3.5,2.3c-1.1,0.9-2.5,1.7-3.9,1.3
			c-0.5-0.1-1-0.4-1.5-0.6C205.6,169.6,203.4,169.9,202.2,168.4z"/>
		<path fill="#FFEBA0" d="M232,170.3c1.3-1,2.3-2.2,3.1-3.6c-0.1-0.6-0.1-1.2-0.2-1.8c-3.2-0.6-6.4,1.1-9.7,1.1
			c-1.3,0-2.7-0.2-4,0.2c-1.6,0.6-2.6,2.9-1.6,4.3c0.9,1.3,2.8,1.3,4.3,1c1.5-0.4,3-1,4.6-0.8c0.2,0,0.5,0.2,0.5,0.4
			C230,171.5,231.1,170.9,232,170.3z"/>
		<path fill="#FFEBA0" d="M244.1,151.2c-0.5,1.3-1.7,2.4-3.1,2.7c-1.2,0.2-2.4,0-3.5,0.1c-1.9,0.2-3.5,1.5-4.5,3.1
			c-1,1.6-1.3,3.6-1.1,5.5c0.9,0.2,1.8,0.3,2.7,0.3c0.5,0,1.1,0,1.5-0.3c0.4-0.3,0.8-0.8,0.6-1.3c1.3-0.2,2.3,1.6,3.6,1.4
			c0.6-0.1,1-0.5,1.3-0.9c2.1-2.5,3.1-5.7,2.8-8.9c0.9,0,1.8,0,2.7,0c0-0.5,0-1,0-1.5C246.1,151.2,245.1,151.2,244.1,151.2z"/>
		<path fill="#FFEBA0" d="M253.8,160.7c1.3-0.5,2.2-2,3.6-2c0.4,0,0.8,0.1,1.1-0.1c0.4-0.2,0.5-0.7,0.6-1.2c0.4-2.4,0.5-4.8,0.3-7.2
			c-2.7-0.2-5.3-0.3-8-0.2c-1.1,1.7-2.1,3.3-3.2,5c-1.1,1.8-2.3,3.8-1.7,5.9c1.7,0.1,3.5,0.2,5.2,0.2
			C252.4,161,253.2,161,253.8,160.7z"/>
		<path fill="#FFEBA0" d="M249.4,169c-0.4,1.2-1.1,2.3-2.2,2.8c-1.3,0.5-2.8-0.1-4.2,0.2c-1.2,0.2-2.4,1.1-3.5,0.7
			c-0.8-0.3-1.2-1.3-1.4-2.2c-0.4-1.7-0.5-3.5-0.4-5.2c1.2,0,2.3,0,3.5,0c0-0.3,0-0.5,0-0.8c1.5-0.7,3-1.2,4.7-1.4
			c0.9-0.1,2-0.2,2.7,0.4c0.6,0.5,0.9,1.3,1.1,2.1C249.8,166.6,249.8,167.9,249.4,169z"/>
		<path fill="#FFEBA0" d="M205.4,180.5c-0.7,0.9-1.7,1.3-2.7,1.7c-0.7,1-0.2,2.5,0.8,3.2c1,0.7,2.3,0.9,3.5,1.1
			c2.3,0.2,4.7,0.3,7.1,0.1c0.5,0,1-0.1,1.4-0.4c0.4-0.3,0.6-0.7,0.8-1c0.9-1.3,2.1-2.4,3.6-3c0.3-0.1,0.7-0.3,0.9-0.6
			c0.2-0.3,0.1-0.7,0.1-1.1c-0.3-1.6-0.9-3.2-1.7-4.7c-3.9-2-8.4-2.7-12.7-2C205.8,176.1,206.8,178.7,205.4,180.5z"/>
		<path fill="#FFEBA0" d="M227.7,176.8c1.6-1.6,4.4-1.7,6.2-0.5c1.9,1.3,2.7,3.8,2.1,6c-0.1,0.2-0.1,0.5-0.3,0.7
			c-0.3,0.4-0.8,0.5-1.2,0.6c-2.6,0.6-5.1,1.1-7.7,1.7c-0.2,0-0.4,0.1-0.6,0c-0.2-0.1-0.3-0.2-0.4-0.4c-2.3-3.1-3.3-7.2-2.6-11
			c0.1-0.6,0.3-1.2,0.7-1.7c0.7-0.7,1.9-0.7,3-0.5C227.6,173.3,227.9,175.1,227.7,176.8z"/>
		<path fill="#FFEBA0" d="M241.2,175.3c3.3-0.6,6.7,0.9,9.6,2.7c0.7,0.4,1.5,0.9,1.9,1.6c0.5,0.8,0.5,1.8,0.6,2.7
			c0,1.3,0.1,2.7-0.8,3.7c-0.8,1.1-2.3,1.3-3.6,1.5c-2.5,0.4-5.4,0.7-7.2-1c-0.4-2.4-0.7-4.9-1.1-7.3
			C240,179.1,241.4,175.8,241.2,175.3z"/>
		<path fill="#FFEBA0" d="M260,173.5c0.2-0.2,0.3-0.6,0.3-0.9c0.3-1.7,0.5-3.4,0.8-5.1c0.2-1.3,0.3-2.7-0.5-3.7
			c-1.1-1.3-3.1-1-4.8-0.6c-2.9,2.7-4.3,6.8-3.8,10.7c2.3,0.7,4.8,0.7,7.1,0C259.4,173.9,259.7,173.8,260,173.5z"/>
		<path fill="#FFEBA0" d="M215.6,189.2c1,0.4,1.2,1.6,1.4,2.7c0.4,2.8,0.5,5.9-0.8,8.5c-1.4,2.9-4.5,4.9-7.7,5
			c-0.9-2.2-1.6-4.5-2.3-6.9c-0.4-1.5-0.8-3.2-0.4-4.7c0.1-0.4,0.3-0.8,0.5-1.1c1.4-2.5,4.6-3.1,7.5-3.5
			C214.5,189,215.1,189,215.6,189.2z"/>
		<path fill="#FFEBA0" d="M219.7,195.1c1.1,1.3,3,1.4,4.7,1.5c1.4,0.1,2.9,0.1,4.2-0.6c1.2-0.6,2.1-1.9,2.2-3.3
			c0.1-1.4-0.5-2.8-1.5-3.7c-1-0.8-2.4-1.1-3.7-1.2c-0.6-0.7-1-1.6-1-2.5c0-0.4,0-0.8-0.1-1.2c-0.3-0.7-1.3-0.9-2.1-0.8
			s-1.7,0.4-2.4,0.1c-0.3,2.2-0.6,4.4-0.9,6.6C218.6,191.7,218.5,193.8,219.7,195.1z"/>
		<path fill="#FFEBA0" d="M233.1,187c1.1-0.2,2.2-0.5,3.2-0.7c0.3-0.1,0.7-0.1,1-0.1c1,0.1,1.6,1.1,1.8,2c0.2,1,0,1.9-0.1,2.9
			c-0.2,3.4,1.3,6.7,0.8,10c0,0.2-0.1,0.5-0.3,0.7c-0.1,0.1-0.3,0.2-0.5,0.2c-2.3,0.6-4.7,0.7-7.1,0.3c-2.1-0.3-4.6-1.4-4.9-3.5
			c0-0.3,0-0.6,0.1-0.9c0.3-0.6,1-0.8,1.6-1c1.9-0.6,3.8-1.5,5.4-2.6C234.1,191.8,233.7,189.4,233.1,187z"/>
		<path fill="#FFEBA0" d="M258.4,195.4c-0.2-1.3-1.1-2.3-2-3.2c-0.7-0.7-1.4-1.4-2.2-1.8c-1-0.5-2.1-0.5-3.2-0.4
			c-2.1,0.1-4.2,0.4-5.8,1.8c-1.4,1.2-2,3.1-2.1,5c-0.1,1.9,0.3,3.7,0.7,5.5c2.4,0.2,4.8,0.3,7.2,0.5c0.8,0.1,1.6,0.1,2.3-0.3
			c1.3-0.7,1.9-2.6,3.3-2.5C257.6,198.6,258.7,197,258.4,195.4z"/>
		<path fill="#FFEBA0" d="M260,179.2c-0.3-0.3-0.7-0.7-1.1-0.9c-1.3-0.5-2.6,0.8-3.4,1.9c-1.6,2.3-2.9,4.9-2.8,7.7
			c1.7,0.3,3.4,0.3,5.1-0.1c0.5-0.1,1-0.3,1.4-0.6c0.9-0.7,0.9-2,1.5-3c0.3-0.4,0.6-0.8,0.8-1.3C262.1,181.7,261,180.3,260,179.2z"
			/>
		<path fill="#FFEBA0" d="M207.3,210.3c2.3,0,4.7-0.1,7-0.1c0.7,0,1.5,0,1.9,0.6c0.2,0.3,0.3,0.7,0.3,1.1c0.1,0.6,0.1,1.1,0.2,1.7
			c0.2,1.4,0.3,3-0.3,4.3c-1,2.3-3.7,3.2-6.1,3.9c-1,0.3-2.1,0.6-3.1,0.5c-1.1-0.1-2.1-0.6-2.6-1.6c-0.2-0.4-0.2-0.9-0.3-1.3
			c-0.2-1.7-0.4-3.5-0.6-5.2c-0.1-1-0.2-2.1,0.5-2.9C205.1,210.4,206.3,210.3,207.3,210.3z"/>
		<path fill="#FFEBA0" d="M222.9,209c0.8,0.3,1,1.4,1.7,1.9c0.7,0.5,1.7,0.3,2.2-0.3c0.2-0.2,0.3-0.5,0.4-0.8
			c0.2-0.4,0.3-0.8,0.5-1.3c0.7-1.9,1.5-4,0.9-6c-0.9-0.8-2-1.4-3.1-1.8c-0.2-0.4-0.4-0.7-0.7-1c-1.6-1.8-4.8-1.9-6.5-0.1
			c-1.5,1.9-1.6,4.4-1.6,6.8c0,0.2,0,0.4,0.1,0.6c0.2,0.2,0.5,0.3,0.7,0.3c0.9,0.1,1.7,0.3,2.6,0.4c0.3,0,0.5,0.1,0.7,0.3
			c0.2,0.2,0.2,0.4,0.4,0.5C221.6,209,222.4,208.8,222.9,209z"/>
		<path fill="#FFEBA0" d="M221.4,214.7c0.9,0.2,1.8-0.3,2.7-0.7c1.6-0.7,3.5-0.9,5.3-0.5c1.3,3.2,0.4,7.4-2.4,9.3
			c-1.7,1.2-3.7,1.5-5.8,1.5c-0.7,0-1.5,0-2.2-0.2c-2.3-0.6-4.1-2.8-4.2-5.1C214.8,216.8,219.2,215.4,221.4,214.7z"/>
		<path fill="#FFEBA0" d="M244.2,212.5c0-0.9,0-1.8-0.5-2.5c-0.6-0.9-1.9-1.5-1.9-2.6c-1.3-0.6-2.5-1.2-3.8-1.8
			c-1.8-0.8-3.6-1.7-5.3-2.7c-1.4,1.6-1.9,3.7-2.3,5.8c-0.5,2.4-0.7,5.3,1.1,7c1.8,1.6,4.5,1.3,6.8,1.9c0.9,0.2,1.8,0.7,2.7,0.8
			c0.9,0.1,2-0.1,2.6-0.9c0.4-0.6,0.4-1.4,0.4-2.1C244.2,214.4,244.2,213.4,244.2,212.5z"/>
		<path fill="#FFEBA0" d="M249.2,211.3c0,0.7,0,1.4,0.5,1.8c0.4,0.4,1,0.4,1.6,0.4c1.7,0,3.4,0,5.1-0.1c1.7-2.3,2.6-5.2,2.7-8.1
			c0-0.2,0-0.5-0.2-0.6c-0.1-0.1-0.3-0.1-0.5-0.2c-3.6-0.6-7.2-0.7-10.9-0.5c-0.2,0.9-0.7,2-1.6,2.1c-0.7,0.6-1.1,1.6-1.1,2.5
			c1.6-0.3,3.1-0.8,4.6-1.4C249.4,208.5,249.3,209.9,249.2,211.3z"/>
		<path fill="#FFEBA0" d="M241.4,227.6c-0.7-2.2-1-4.8,0.6-6.4c0.6-0.6,1.4-1,2.1-1.3c1-0.5,1.9-0.9,2.9-1.4c2.1-1,4.3-2,6.6-2.4
			c0.8,0.7,1.5,1.7,1.7,2.7c0.6,2.9-1.3,5.6-3.1,7.9c-1.2,1.5-2.5,3-4.4,3.6C245.4,231.1,242.5,229.8,241.4,227.6z"/>
		<path fill="#FFEBA0" d="M240.9,225.1c-0.1-1.1-0.5-2.2-1.4-2.8c-1.5-1.1-3.6-0.4-5.2,0.3c-1.9,0.8-3.8,1.8-5,3.5
			c-1.3,1.8-1.5,4.1-1.6,6.2c0,0.5-0.1,1.1,0.3,1.6c0.2,0.2,0.5,0.4,0.8,0.5c2.8,1.3,6.4,0.9,8.8-1
			C240,231.4,241.4,228.2,240.9,225.1z"/>
		<path fill="#FFEBA0" d="M209.6,226.2c0-0.4,0.5-0.6,0.9-0.8c3.9-1,8.1-1.2,12-0.3c-0.3,1.5,0,3,0,4.4c0.1,1.5-0.2,3.1-1.2,4.1
			c-1.6,1.5-4.1,0.9-6.3,1.4c-0.9,0.2-1.8,0.7-2.6,1.2c-0.3,0.2-0.7,0.5-1.1,0.4c-0.3,0-0.6-0.3-0.8-0.5c-2.1-2.2-3.6-5-4-8.1
			c-0.1-0.5-0.1-1,0-1.5c0.2-1,1.1-1.9,2.1-2.3S208.5,226.4,209.6,226.2z"/>
		<path fill="#FFEBA0" d="M261.4,213.4c-2.1-0.3-4.1,1.2-5,3c-0.9,1.9-1.1,4-1.2,6.1c0,0.3,0,0.7,0.2,1c0.2,0.3,0.5,0.4,0.7,0.5
			c1.6,0.5,3.7-0.2,4.1-1.9c0.1-0.6,0-1.2-0.1-1.8C259.7,218,260.2,215.5,261.4,213.4z"/>
		<path fill="#FFEBA0" d="M255.5,241.7c1,0,2.1-0.2,2.6-1c0.2-0.4,0.2-0.9,0.2-1.3c-0.1-3.1,0.2-6.3,0.8-9.4
			c-2.2-0.2-4.4-0.5-6.5-0.1c-2.2,0.4-4.3,1.5-5.4,3.3c-1,1.6-1.1,3.5-0.9,5.4c0,0.4,0.1,0.8,0.3,1.1c0.2,0.3,0.6,0.6,0.9,0.8
			C249.8,241.7,252.7,241.7,255.5,241.7z"/>
		<path fill="#FFEBA0" d="M233.8,249.6c0.7,0.6,1.6,0.8,2.4,0.9c2,0.3,4,0.4,5.9-0.3c1.9-0.7,3.5-2.2,3.9-4.2
			c0.6-2.8-1.3-5.5-3.1-7.7c-0.4-0.5-0.9-1.1-1.3-1.6c-2.1-0.1-4.2,0-6.3,0.2c-0.3,0-0.5,0.1-0.7,0.2c-0.2,0.2-0.3,0.4-0.4,0.6
			c-0.9,2.5-1.4,5.1-1.6,7.7C232.7,247,232.8,248.6,233.8,249.6z"/>
		<path fill="#FFEBA0" d="M221.3,235.2c-0.3-0.2-0.5,0.3-0.6,0.6c-0.3,2.1,0.6,4.2,1.8,5.9c0.2,0.3,0.4,0.6,0.8,0.8
			c0.3,0.1,0.6,0.2,0.9,0.2c1.5,0.1,3.2,0.2,4.5-0.5c1.3-0.6,2.2-1.9,2.6-3.3c0.4-1.4,0.4-2.8,0.2-4.2c-1.2-0.7-2.6-0.8-3.9-0.8
			c-1.6-0.1-3.3-0.1-4.8,0.5C221.2,234.9,221.6,233.6,221.3,235.2z"/>
		<path fill="#FFEBA0" d="M205,239.7c-1.2,4.3,0,9.2,3,12.4c1.2,1.3,3.2,2.5,4.8,1.6c0.8-0.5,1.3-1.3,1.8-2.2c1.3-2.3,2.5-4.7,3.8-7
			c0.4-0.7,0.7-1.3,0.7-2.1c0-0.9-0.4-1.7-1-2.4c-2.2-2.5-6.2-2.6-9.3-1.4C207.1,239.3,205.5,237.9,205,239.7z"/>
		<path fill="#FFEBA0" d="M222.4,246.2c1.6,0,3.1-0.6,4.6-0.8c1.6-0.2,3.4,0.1,4.2,1.4c0.6,0.9,0.5,2,0.5,3.1c0,0.6-0.1,1.2-0.3,1.7
			c-0.2,0.5-0.6,0.9-0.9,1.3c-2.1,2.4-4.3,4.8-6.4,7.2c-1,0.4-2.2-0.1-2.9-0.9c-0.7-0.8-1-1.9-1.2-3c-0.2-0.9-0.3-1.7-0.4-2.6
			c-0.1-1.3-0.1-2.8,0.6-3.9C221.2,247.8,220.3,246.7,222.4,246.2z"/>
		<path fill="#FFEBA0" d="M244.4,252.2c-1.4,0-2.7,0.1-4.1,0.1c-0.4,0-0.9,0-1.2,0.2c-0.4,0.2-0.7,0.7-1,1c-0.6,0.6-1.3,1-1.9,1.6
			c-2.2,1.9-2.8,5.2-2.6,8.1c0,0.3,0,0.5,0.2,0.8c0.2,0.3,0.5,0.4,0.8,0.5c3.3,1.3,7,1.5,10.5,0.7c1-0.2,2-0.6,2.7-1.3
			c0.7-0.8,1.1-1.8,1.3-2.8c0.4-1.6,0.6-3.3,0.7-5c0-0.7,0-1.4-0.3-2C248.7,252.3,246.3,252.1,244.4,252.2z"/>
		<path fill="#FFEBA0" d="M249.7,245.6c-0.7,1.7-1.2,3.5-1.3,5.3c0,0.4,0,0.8,0.1,1.1c0.4,1.1,1.7,1.5,2.9,1.5
			c2.2,0,4.5-0.6,6.4-1.7c0.5-0.3,0.9-0.6,1.2-1.1c0.2-0.4,0.3-0.8,0.3-1.3c0.2-1.4,0.4-2.8,0.5-4.2c0-0.2,0.1-0.5,0-0.7
			c-0.2-0.4-0.7-0.5-1.1-0.6c-2.5-0.5-5.2-0.9-7.4,0.2C249.2,245.1,252,245.3,249.7,245.6z"/>
		<path fill="#FFEBA0" d="M200.2,269.6c0-1,0-2,0-3c0-0.6,0-1.3,0.2-1.9c0.2-0.5,0.5-0.9,0.7-1.3c0.6-1.1,0.6-2.3,0.8-3.5
			c0.1-1.2,0.4-2.5,1.1-3.4c0.8-0.9,2.3-1.3,3.2-0.6c1.3,4.8,0.1,10.2-3,14.1c-0.3,0.4-0.7,0.8-1.2,1s-1.2,0.1-1.5-0.3
			C200.2,270.4,200.2,270,200.2,269.6z"/>
		<path fill="#FFEBA0" d="M208.5,268.1c0,0.5,0,1.1,0.3,1.6c0.3,0.7,0.9,1.2,1.5,1.6c2.6,1.8,6,2.7,9.2,2.4c1.5-0.2,3-0.6,3.9-1.8
			c0.9-1.2,0.8-2.9,0.7-4.4c-0.1-0.8-0.1-1.6-0.4-2.3c-0.6-1.8-2-3.1-3.1-4.5c-1.1-1.5-2-3.4-1.3-5.1c-3.1-0.4-6.2,1.3-8.1,3.8
			C209.2,261.8,208.4,265,208.5,268.1z"/>
		<path fill="#FFEBA0" d="M201.8,236c-0.2-0.1-0.2-0.3-0.1-0.5c0.2-3.1,0.3-6.2,0.5-9.4c0.9-0.6,2.2-0.1,2.9,0.7c0.7,0.8,0.9,2,1,3
			c0.1,1.4,0,2.8-0.6,4.1s-1.9,2.2-3.3,2.2C202,236.1,201.9,236.1,201.8,236z"/>
		<path fill="#FFEBA0" d="M205.7,206.3c0,0.4,0,0.7-0.1,1.1c-0.3,0.7-1.1,1-1.8,1c-0.7,0-1.4-0.3-2.1-0.6c-0.1-1.5,0-2.9,0.3-4.3
			c0.2-1.1,0.9-2.5,2-2.4c0.6,0,1.2,0.6,1.4,1.2c0.2,0.6,0.2,1.3,0.2,1.9C205.7,204.8,205.7,205.5,205.7,206.3z"/>
		<path fill="#FFEBA0" d="M227.6,259.3c-1,0.3-1.7,1.4-1.9,2.5s0.2,2.2,0.5,3.2c0.7,2.1,1.7,4.1,1.8,6.2c0,0.5,0,1,0.2,1.5
			c0.4,1,1.7,1.4,2.6,0.8c1.3-3.2,1.7-6.7,1.1-10.1c-0.2-1.1-0.5-2.3-1.3-3.2C230,259.5,228.7,258.9,227.6,259.3z"/>
		<path fill="#FFEBA0" d="M253.8,269.8c-0.1-0.3-0.3-0.7-0.5-0.9c-0.3-0.3-0.7-0.5-1.2-0.7c-3.5-1.3-7.4-1.1-11.2-0.9
			c-0.5,0-1.1,0.1-1.6,0.4c-0.5,0.3-0.7,0.9-1,1.4c-0.6,0.7-1.4,0.9-2,1.5c-1.6,1.5-0.9,4.1-1.2,6.3c3.1,1.7,6.8,1.4,10.2,1.2
			c2.2-0.2,4.5-0.4,6.2-1.6C253.7,275,254.6,272.2,253.8,269.8z"/>
		<path fill="#FFEBA0" d="M249.9,256.7c-0.4,0.5-0.4,1.2-0.5,1.8c-0.2,1.8-0.6,3.8,0.5,5.3c1.1,1.7,3.5,1.9,5.5,1.9
			c1.2,0,2.5,0,3.3-0.7c0.4-0.4,0.7-0.9,1-1.4c1.1-1.9,2.1-4,2.1-6.2c0-0.2,0-0.5-0.2-0.7c-0.2-0.2-0.5-0.3-0.7-0.3
			c-2.9-0.6-5.9-0.7-8.8-0.5C251.3,255.9,250.4,256.1,249.9,256.7z"/>
		<path fill="#FFEBA0" d="M255.2,285c2.3-1.1,4.1-3.3,4.4-5.8c0.1-0.9,0-1.8,0.1-2.7c0.1-1.2,0.4-2.5,0.9-3.6c0.2-0.5,0.5-1,0.3-1.4
			c-0.2-0.5-0.8-0.6-1.3-0.5s-0.9,0.5-1.3,0.8c-3.2,3-5.9,6.5-7.7,10.5c-0.5,1-0.9,2.2-0.6,3.3C251.7,286,253.6,285.8,255.2,285z"/>
		<path fill="#FFEBA0" d="M222.2,278.1c2.9,0,5.8,0.1,8.8,0.1c1.8,2.8,2.4,6.2,1.9,9.4c-0.1,0.7-0.3,1.4-0.8,1.9
			c-0.6,0.6-1.5,0.8-2.4,0.8c-2,0.2-4,0.2-6,0.1c-2-3.3-3-7.1-2.9-10.9c0-0.5,0.1-1,0.5-1.3C221.5,278.1,221.9,278.1,222.2,278.1z"
			/>
		<path fill="#FFEBA0" d="M216.5,277.9c0-1.5-0.1-3.2-1.3-4c-0.7-0.5-1.7-0.6-2.5-0.6c-1.8-0.1-3.5-0.2-5.3-0.3
			c-0.4,0-0.8,0-1.1,0.1c-0.5,0.2-0.8,0.8-1.1,1.3c-0.3,0.5-0.5,1-0.8,1.6c-0.4,0.7-0.7,1.5-0.8,2.3c-0.1,0.8,0.1,1.7,0.7,2.3
			c0.5,0.4,1.1,0.6,1.8,0.7c1.5,0.3,3,0.7,4.5,1c1.7,0.4,3.7,0.7,4.9-0.5C216.4,280.7,216.5,279.2,216.5,277.9z"/>
		<path fill="#FFEBA0" d="M203.3,285c2.5-1,5.6-0.4,7.5,1.6c0.3,0.3,0.6,0.7,0.8,1c1,1.7,0.4,4.2-1.2,5.3c-0.9,1-2.3,1.3-3.6,1.1
			s-2.5-0.8-3.6-1.5c-1.1-0.7-2.1-1.5-2.7-2.7S202.1,285.5,203.3,285z"/>
		<path fill="#FFEBA0" d="M212.4,288.1c-0.5,1.6-0.2,3.5,1.2,4.5c0.7,0.6,1.7,0.8,2.6,1c1.3,0.3,2.7,0.6,4,0.9
			c1-2.1,1.5-4.4,1.6-6.8c0-0.4,0-0.8-0.1-1.1c-0.1-0.3-0.3-0.6-0.6-0.8c-1.3-1.2-3.2-1.7-4.9-1.3
			C214.4,285,212.9,286.4,212.4,288.1z"/>
		<path fill="#FFEBA0" d="M243.7,291.4c0,0.4,0,0.9-0.3,1.3c-0.4,0.6-1.1,0.8-1.8,0.9c-1.9,0.3-4.2,0.1-5.1-1.6
			c-0.2-0.4-0.3-0.8-0.4-1.2c-0.6-2.7-0.9-5.4-0.8-8.1c1.8-0.6,3.6-1,5.5-1.1c0.8,0,1.6,0,2.2,0.5c0.8,0.7,0.8,1.8,0.8,2.9
			C243.8,287.1,243.7,289.3,243.7,291.4z"/>
		<path fill="#FFEBA0" d="M247,288.2c-0.9,2.8-1.3,5.7-1.2,8.6c0,0.4,0,0.7,0.2,1c0.2,0.3,0.5,0.5,0.8,0.7c2.5,1.7,5.2,2.9,8,3.8
			c1.5,0.5,3.4,0.7,4.6-0.4c0.5-0.5,0.8-1.2,1.1-1.8c0.5-1.5,0.8-3.2,0.8-4.8c0-0.9-0.1-1.8-0.7-2.5c-0.4-0.5-1.1-0.8-1.7-1
			c-1.4-0.6-2.8-1.1-4.2-1.7c-0.6-0.3-1.2-0.5-1.9-0.7C251,288.8,249,288.4,247,288.2z"/>
		<path fill="#FFEBA0" d="M221.8,296.4c0.7-1,2-1.6,3.2-1.9c2.1-0.6,4.3-0.8,6.5-0.7c0.4,0,0.7,0.1,1,0.2c0.6,0.3,0.8,1.1,0.9,1.7
			c0.6,2.8,1,5.7,1.2,8.6c0,0.2,0,0.5-0.1,0.7c-0.2,0.4-0.8,0.5-1.3,0.6c-1.9,0.2-3.9,0.3-5.8-0.3c-0.4-0.2-0.8-0.3-1.2-0.5
			c-1.2-0.6-2.4-1.1-3.5-1.7c-0.4-0.2-0.9-0.4-1.2-0.8c-0.4-0.6-0.5-1.3-0.5-2C221.1,298.9,221,297.5,221.8,296.4z"/>
		<path fill="#FFEBA0" d="M219.5,303.4c0.8-0.3,1.2-1.2,1.4-2c0.3-1.4-0.2-3-1.2-4.1c-1-1.1-2.4-1.8-3.9-2.1
			c-3.2-0.9-6.7-0.8-9.9,0.3c-0.6,2.1-0.5,4.8,1.3,6c0.6,0.4,1.2,0.6,1.9,0.7c3,0.7,6.1,1.2,9.2,1.3
			C218.7,303.5,219.2,303.5,219.5,303.4z"/>
		<path fill="#FFEBA0" d="M211.9,307c-0.2,1.6-1.2,3.1-2.7,3.9c-1.7,0.9-3.8,0.8-5.7,0.7c-0.8-0.1-1.8-0.2-2.3-0.9
			c-0.3-0.4-0.2-0.9-0.2-1.4c0.1-1.7,0.2-3.5,0.3-5.2c2.5-0.1,5-0.1,7.5-0.2c0.7,0,1.5,0,2.1,0.3C211.8,304.8,212,306,211.9,307z"/>
		<path fill="#FFEBA0" d="M225.4,311c0.4,0.1,0.8,0.1,1.2-0.1c0.6-0.3,0.8-1.1,0.8-1.7c0-1-0.2-1.9-0.5-2.9
			c-0.1-0.3-0.2-0.5-0.4-0.7c-0.2-0.2-0.5-0.2-0.8-0.3c-2.9-0.5-5.9-0.9-8.9-1.2c-0.5,0.8-1,1.6-1.2,2.4c-0.2,0.9,0,1.9,0.6,2.5
			c0.6,0.5,1.3,0.6,2.1,0.7c1,0.2,2,0.3,3,0.5C222.7,310.5,224.1,310.8,225.4,311z"/>
		<path fill="#FFEBA0" d="M245.6,309.4c0.5-2.4,0.7-4.8,0.6-7.2c-1.5-1-3.3-1.3-5-0.9c-1.1,2.6-1.5,5.4-1.1,8.2
			C241.9,310,244,310.6,245.6,309.4z"/>
		<path fill="#FFEBA0" d="M257.1,310.2c-1.5,0.8-3.3,0.7-4.8-0.1c-1.8-1-2.9-3.4-2.2-5.3c0.5-0.5,1.2-0.5,1.9-0.4
			c1.5,0.2,2.9,0.7,4,1.8C257,307.2,257.6,308.8,257.1,310.2z"/>
	</g>
	<g id="Piedras-2">
		<path fill="#FFEBA0" d="M465.2,155.7c0.3,0.5,0.2,1.2,0.3,1.8c0.2,0.9,1,1.5,1.8,1.7s1.7,0.1,2.6,0c0.5-0.1,1-0.1,1.3-0.5
			c0.2-0.2,0.3-0.5,0.4-0.7c0.6-1.7,1.2-3.4,1.8-5.1c0.9,0.1,1.8,0,2.5-0.7c0.6-0.6,0.9-1.7,0.4-2.4c-0.7-0.5-1.4-1-2.2-1.2
			c-0.7-0.2-1.4-0.2-2.1-0.2c-1.4,0-2.7,0-4.1,0.1c-1.3,0-2.7,0-4,0.5c-1.3,0.4-2.5,1.4-2.9,2.6c-0.4,1.3,0.2,2.9,1.5,3.3
			C463.4,155.2,464.6,154.9,465.2,155.7z"/>
		<path fill="#FFEBA0" d="M487.7,162.9c1.4-0.6,2.8-1.3,3.5-2.7c1.1-2.2-0.3-5.1,1.2-7c-1.9,0.3-3.8,0.2-5.7-0.3
			c-1.6-0.4-3.3-1-5-0.6c-1.6,0.4-2.8,1.7-3.5,3.2c-0.6,1.1-1,2.4-0.8,3.7c0.6,0.1,1.3,0.2,1.9,0.2c0.2,0,0.3,0,0.5,0.1
			c0.2,0.1,0.3,0.4,0.4,0.6c0.9,1.9,2.7,3.7,4.8,3.6C485.9,163.7,486.8,163.3,487.7,162.9z"/>
		<path fill="#FFEBA0" d="M500.6,146.9c-0.5-1-1.9-0.9-3-0.7c-1.6,0.4-3.1,1-4.6,1.7c-0.3,0.2-0.7,0.3-1.1,0.2
			c-0.2-0.1-0.4-0.4-0.6-0.5c-0.3-0.2-0.7-0.2-1.1-0.2c-1.5,0-2.9,0-4.4,0c-0.8,1.5-0.2,3.6,1.2,4.5c1.1,0.7,2.5,0.7,3.8,0.7
			c1.8,0,3.7-0.1,5.4-0.6s3.4-1.7,4.1-3.4C500.7,148.1,500.9,147.4,500.6,146.9z"/>
		<path fill="#FFEBA0" d="M462.4,167.7c-0.8-1-0.7-2.6-0.2-3.7c0.2-0.4,0.5-0.9,0.9-1.1c0.3-0.2,0.6-0.2,1-0.2
			c4.9-0.6,9.8-0.8,14.6-0.5c0.3,1.4,0.4,3.2-0.8,3.9c-0.5,0.3-1,0.3-1.5,0.5c-1.4,0.4-2.4,1.5-3.5,2.3c-1.1,0.9-2.5,1.7-3.9,1.3
			c-0.5-0.1-1-0.4-1.5-0.6C465.8,168.9,463.6,169.1,462.4,167.7z"/>
		<path fill="#FFEBA0" d="M492.2,169.5c1.3-1,2.3-2.2,3.1-3.6c-0.1-0.6-0.1-1.2-0.2-1.8c-3.2-0.6-6.4,1.1-9.7,1.1
			c-1.3,0-2.7-0.2-4,0.2c-1.6,0.6-2.6,2.9-1.6,4.3c0.9,1.3,2.8,1.3,4.3,1c1.5-0.4,3-1,4.6-0.8c0.2,0,0.5,0.2,0.5,0.4
			C490.2,170.8,491.3,170.2,492.2,169.5z"/>
		<path fill="#FFEBA0" d="M504.3,150.4c-0.5,1.3-1.7,2.4-3.1,2.7c-1.2,0.2-2.4,0-3.5,0.1c-1.9,0.2-3.5,1.5-4.5,3.1
			c-1,1.6-1.3,3.6-1.1,5.5c0.9,0.2,1.8,0.3,2.7,0.3c0.5,0,1.1,0,1.5-0.3s0.8-0.8,0.6-1.3c1.3-0.2,2.3,1.6,3.6,1.4
			c0.6-0.1,1-0.5,1.3-0.9c2.1-2.5,3.1-5.7,2.8-8.9c0.9,0,1.8,0,2.7,0c0-0.5,0-1,0-1.5C506.3,150.4,505.3,150.4,504.3,150.4z"/>
		<path fill="#FFEBA0" d="M514,159.9c1.3-0.5,2.2-2,3.6-2c0.4,0,0.8,0.1,1.1-0.1c0.4-0.2,0.5-0.7,0.6-1.2c0.4-2.4,0.5-4.8,0.3-7.2
			c-2.7-0.2-5.3-0.3-8-0.2c-1.1,1.7-2.1,3.3-3.2,5c-1.1,1.8-2.3,3.8-1.7,5.9c1.7,0.1,3.5,0.2,5.2,0.2
			C512.6,160.2,513.4,160.2,514,159.9z"/>
		<path fill="#FFEBA0" d="M509.6,168.3c-0.4,1.2-1.1,2.3-2.2,2.8c-1.3,0.5-2.8-0.1-4.2,0.2c-1.2,0.2-2.4,1.1-3.5,0.7
			c-0.8-0.3-1.2-1.3-1.4-2.2c-0.4-1.7-0.5-3.5-0.4-5.2c1.2,0,2.3,0,3.5,0c0-0.3,0-0.5,0-0.8c1.5-0.7,3-1.2,4.7-1.4
			c0.9-0.1,2-0.2,2.7,0.4c0.6,0.5,0.9,1.3,1.1,2.1C510.1,165.9,510,167.1,509.6,168.3z"/>
		<path fill="#FFEBA0" d="M465.6,179.8c-0.7,0.9-1.7,1.3-2.7,1.7c-0.7,1-0.2,2.5,0.8,3.2s2.3,0.9,3.5,1.1c2.3,0.2,4.7,0.3,7.1,0.1
			c0.5,0,1-0.1,1.4-0.4c0.4-0.3,0.6-0.7,0.8-1c0.9-1.3,2.1-2.4,3.6-3c0.3-0.1,0.7-0.3,0.9-0.6c0.2-0.3,0.1-0.7,0.1-1.1
			c-0.3-1.6-0.9-3.2-1.7-4.7c-3.9-2-8.4-2.7-12.7-2C466,175.3,467,177.9,465.6,179.8z"/>
		<path fill="#FFEBA0" d="M488,176c1.6-1.6,4.4-1.7,6.2-0.5c1.9,1.3,2.7,3.8,2.1,6c-0.1,0.2-0.1,0.5-0.3,0.7
			c-0.3,0.4-0.8,0.5-1.2,0.6c-2.6,0.6-5.1,1.1-7.7,1.7c-0.2,0-0.4,0.1-0.6,0c-0.2-0.1-0.3-0.2-0.4-0.4c-2.3-3.1-3.3-7.2-2.6-11
			c0.1-0.6,0.3-1.2,0.7-1.7c0.7-0.7,1.9-0.7,3-0.5C487.8,172.6,488.1,174.3,488,176z"/>
		<path fill="#FFEBA0" d="M501.4,174.5c3.3-0.6,6.7,0.9,9.6,2.7c0.7,0.4,1.5,0.9,1.9,1.6c0.5,0.8,0.5,1.8,0.6,2.7
			c0,1.3,0.1,2.7-0.8,3.7c-0.8,1.1-2.3,1.3-3.6,1.5c-2.5,0.4-5.4,0.7-7.2-1c-0.4-2.4-0.7-4.9-1.1-7.3
			C500.2,178.4,501.6,175.1,501.4,174.5z"/>
		<path fill="#FFEBA0" d="M520.2,172.8c0.2-0.2,0.3-0.6,0.3-0.9c0.3-1.7,0.5-3.4,0.8-5.1c0.2-1.3,0.3-2.7-0.5-3.7
			c-1.1-1.3-3.1-1-4.8-0.6c-2.9,2.7-4.3,6.8-3.8,10.7c2.3,0.7,4.8,0.7,7.1,0C519.6,173.2,519.9,173.1,520.2,172.8z"/>
		<path fill="#FFEBA0" d="M475.9,188.5c1,0.4,1.2,1.6,1.4,2.7c0.4,2.8,0.5,5.9-0.8,8.5c-1.4,2.9-4.5,4.9-7.7,5
			c-0.9-2.2-1.6-4.5-2.3-6.9c-0.4-1.5-0.8-3.2-0.4-4.7c0.1-0.4,0.3-0.8,0.5-1.1c1.4-2.5,4.6-3.1,7.5-3.5
			C474.7,188.3,475.3,188.2,475.9,188.5z"/>
		<path fill="#FFEBA0" d="M479.9,194.3c1.1,1.3,3,1.4,4.7,1.5c1.4,0.1,2.9,0.1,4.2-0.6c1.2-0.6,2.1-1.9,2.2-3.3
			c0.1-1.4-0.5-2.8-1.5-3.7c-1-0.8-2.4-1.1-3.7-1.2c-0.6-0.7-1-1.6-1-2.5c0-0.4,0-0.8-0.1-1.2c-0.3-0.7-1.3-0.9-2.1-0.8
			s-1.7,0.4-2.4,0.1c-0.3,2.2-0.6,4.4-0.9,6.6C478.8,191,478.7,193,479.9,194.3z"/>
		<path fill="#FFEBA0" d="M493.3,186.2c1.1-0.2,2.2-0.5,3.2-0.7c0.3-0.1,0.7-0.1,1-0.1c1,0.1,1.6,1.1,1.8,2c0.2,1,0,1.9-0.1,2.9
			c-0.2,3.4,1.3,6.7,0.8,10c0,0.2-0.1,0.5-0.3,0.7c-0.1,0.1-0.3,0.2-0.5,0.2c-2.3,0.6-4.7,0.7-7.1,0.3c-2.1-0.3-4.6-1.4-4.9-3.5
			c0-0.3,0-0.6,0.1-0.9c0.3-0.6,1-0.8,1.6-1c1.9-0.6,3.8-1.5,5.4-2.6C494.3,191.1,493.9,188.6,493.3,186.2z"/>
		<path fill="#FFEBA0" d="M518.6,194.6c-0.2-1.3-1.1-2.3-2-3.2c-0.7-0.7-1.4-1.4-2.2-1.8c-1-0.5-2.1-0.5-3.2-0.4
			c-2.1,0.1-4.2,0.4-5.8,1.8c-1.4,1.2-2,3.1-2.1,5c-0.1,1.9,0.3,3.7,0.7,5.5c2.4,0.2,4.8,0.3,7.2,0.5c0.8,0.1,1.6,0.1,2.3-0.3
			c1.3-0.7,1.9-2.6,3.3-2.5C517.8,197.8,518.9,196.3,518.6,194.6z"/>
		<path fill="#FFEBA0" d="M520.2,178.5c-0.3-0.3-0.7-0.7-1.1-0.9c-1.3-0.5-2.6,0.8-3.4,1.9c-1.6,2.3-2.9,4.9-2.8,7.7
			c1.7,0.3,3.4,0.3,5.1-0.1c0.5-0.1,1-0.3,1.4-0.6c0.9-0.7,0.9-2,1.5-3c0.3-0.4,0.6-0.8,0.8-1.3C522.4,181,521.2,179.5,520.2,178.5z
			"/>
		<path fill="#FFEBA0" d="M467.5,209.5c2.3,0,4.7-0.1,7-0.1c0.7,0,1.5,0,1.9,0.6c0.2,0.3,0.3,0.7,0.3,1.1c0.1,0.6,0.1,1.1,0.2,1.7
			c0.2,1.4,0.3,3-0.3,4.3c-1,2.3-3.7,3.2-6.1,3.9c-1,0.3-2.1,0.6-3.1,0.5c-1.1-0.1-2.1-0.6-2.6-1.6c-0.2-0.4-0.2-0.9-0.3-1.3
			c-0.2-1.7-0.4-3.5-0.6-5.2c-0.1-1-0.2-2.1,0.5-2.9C465.3,209.6,466.5,209.5,467.5,209.5z"/>
		<path fill="#FFEBA0" d="M483.1,208.3c0.8,0.3,1,1.4,1.7,1.9c0.7,0.5,1.7,0.3,2.2-0.3c0.2-0.2,0.3-0.5,0.4-0.8
			c0.2-0.4,0.3-0.8,0.5-1.3c0.7-1.9,1.5-4,0.9-6c-0.9-0.8-2-1.4-3.1-1.8c-0.2-0.4-0.4-0.7-0.7-1c-1.6-1.8-4.8-1.9-6.5-0.1
			c-1.5,1.9-1.6,4.4-1.6,6.8c0,0.2,0,0.4,0.1,0.6c0.2,0.2,0.5,0.3,0.7,0.3c0.9,0.1,1.7,0.3,2.6,0.4c0.3,0,0.5,0.1,0.7,0.3
			c0.2,0.2,0.2,0.4,0.4,0.5C481.8,208.2,482.6,208.1,483.1,208.3z"/>
		<path fill="#FFEBA0" d="M481.6,213.9c0.9,0.2,1.8-0.3,2.7-0.7c1.6-0.7,3.5-0.9,5.3-0.5c1.3,3.2,0.4,7.4-2.4,9.3
			c-1.7,1.2-3.7,1.5-5.8,1.5c-0.7,0-1.5,0-2.2-0.2c-2.3-0.6-4.1-2.8-4.2-5.1C475,216,479.4,214.7,481.6,213.9z"/>
		<path fill="#FFEBA0" d="M504.4,211.7c0-0.9,0-1.8-0.5-2.5c-0.6-0.9-1.9-1.5-1.9-2.6c-1.3-0.6-2.5-1.2-3.8-1.8
			c-1.8-0.8-3.6-1.7-5.3-2.7c-1.4,1.6-1.9,3.7-2.3,5.8c-0.5,2.4-0.7,5.3,1.1,7c1.8,1.6,4.5,1.3,6.8,1.9c0.9,0.2,1.8,0.7,2.7,0.8
			c0.9,0.1,2-0.1,2.6-0.9c0.4-0.6,0.4-1.4,0.4-2.1C504.4,213.6,504.4,212.7,504.4,211.7z"/>
		<path fill="#FFEBA0" d="M509.4,210.5c0,0.7,0,1.4,0.5,1.8c0.4,0.4,1,0.4,1.6,0.4c1.7,0,3.4,0,5.1-0.1c1.7-2.3,2.6-5.2,2.7-8.1
			c0-0.2,0-0.5-0.2-0.6c-0.1-0.1-0.3-0.1-0.5-0.2c-3.6-0.6-7.2-0.7-10.9-0.5c-0.2,0.9-0.7,2-1.6,2.1c-0.7,0.6-1.1,1.6-1.1,2.5
			c1.6-0.3,3.1-0.8,4.6-1.4C509.6,207.8,509.5,209.1,509.4,210.5z"/>
		<path fill="#FFEBA0" d="M501.6,226.8c-0.7-2.2-1-4.8,0.6-6.4c0.6-0.6,1.4-1,2.1-1.3c1-0.5,1.9-0.9,2.9-1.4c2.1-1,4.3-2,6.6-2.4
			c0.8,0.7,1.5,1.7,1.7,2.7c0.6,2.9-1.3,5.6-3.1,7.9c-1.2,1.5-2.5,3-4.4,3.6C505.6,230.3,502.7,229.1,501.6,226.8z"/>
		<path fill="#FFEBA0" d="M501.1,224.3c-0.1-1.1-0.5-2.2-1.4-2.8c-1.5-1.1-3.6-0.4-5.2,0.3c-1.9,0.8-3.8,1.8-5,3.5
			c-1.3,1.8-1.5,4.1-1.6,6.2c0,0.5-0.1,1.1,0.3,1.6c0.2,0.2,0.5,0.4,0.8,0.5c2.8,1.3,6.4,0.9,8.8-1
			C500.2,230.7,501.6,227.4,501.1,224.3z"/>
		<path fill="#FFEBA0" d="M469.8,225.5c0-0.4,0.5-0.6,0.9-0.8c3.9-1,8.1-1.2,12-0.3c-0.3,1.5,0,3,0,4.4c0.1,1.5-0.2,3.1-1.2,4.1
			c-1.6,1.5-4.1,0.9-6.3,1.4c-0.9,0.2-1.8,0.7-2.6,1.2c-0.3,0.2-0.7,0.5-1.1,0.4c-0.3,0-0.6-0.3-0.8-0.5c-2.1-2.2-3.6-5-4-8.1
			c-0.1-0.5-0.1-1,0-1.5c0.2-1,1.1-1.9,2.1-2.3C469.7,223.2,468.7,225.6,469.8,225.5z"/>
		<path fill="#FFEBA0" d="M521.6,212.7c-2.1-0.3-4.1,1.2-5,3s-1.1,4-1.2,6.1c0,0.3,0,0.7,0.2,1c0.2,0.3,0.5,0.4,0.7,0.5
			c1.6,0.5,3.7-0.2,4.1-1.9c0.1-0.6,0-1.2-0.1-1.8C519.9,217.2,520.4,214.8,521.6,212.7z"/>
		<path fill="#FFEBA0" d="M515.7,240.9c1,0,2.1-0.2,2.6-1c0.2-0.4,0.2-0.9,0.2-1.3c-0.1-3.1,0.2-6.3,0.8-9.4
			c-2.2-0.2-4.4-0.5-6.5-0.1c-2.2,0.4-4.3,1.5-5.4,3.3c-1,1.6-1.1,3.5-0.9,5.4c0,0.4,0.1,0.8,0.3,1.1c0.2,0.3,0.6,0.6,0.9,0.8
			C510.1,241,512.9,241,515.7,240.9z"/>
		<path fill="#FFEBA0" d="M494,248.8c0.7,0.6,1.6,0.8,2.4,0.9c2,0.3,4,0.4,5.9-0.3c1.9-0.7,3.5-2.2,3.9-4.2c0.6-2.8-1.3-5.5-3.1-7.7
			c-0.4-0.5-0.9-1.1-1.3-1.6c-2.1-0.1-4.2,0-6.3,0.2c-0.3,0-0.5,0.1-0.7,0.2c-0.2,0.2-0.3,0.4-0.4,0.6c-0.9,2.5-1.4,5.1-1.6,7.7
			C492.9,246.2,493,247.9,494,248.8z"/>
		<path fill="#FFEBA0" d="M481.5,234.4c-0.3-0.2-0.5,0.3-0.6,0.6c-0.3,2.1,0.6,4.2,1.8,5.9c0.2,0.3,0.4,0.6,0.8,0.8
			c0.3,0.1,0.6,0.2,0.9,0.2c1.5,0.1,3.2,0.2,4.5-0.5c1.3-0.6,2.2-1.9,2.6-3.3c0.4-1.4,0.4-2.8,0.2-4.2c-1.2-0.7-2.6-0.8-3.9-0.8
			c-1.6-0.1-3.3-0.1-4.8,0.5C481.4,234.2,481.8,232.8,481.5,234.4z"/>
		<path fill="#FFEBA0" d="M465.2,239c-1.2,4.3,0,9.2,3,12.4c1.2,1.3,3.2,2.5,4.8,1.6c0.8-0.5,1.3-1.3,1.8-2.2c1.3-2.3,2.5-4.7,3.8-7
			c0.4-0.7,0.7-1.3,0.7-2.1c0-0.9-0.4-1.7-1-2.4c-2.2-2.5-6.2-2.6-9.3-1.4C467.3,238.5,465.7,237.2,465.2,239z"/>
		<path fill="#FFEBA0" d="M482.6,245.5c1.6,0,3.1-0.6,4.6-0.8c1.6-0.2,3.4,0.1,4.2,1.4c0.6,0.9,0.5,2,0.5,3.1c0,0.6-0.1,1.2-0.3,1.7
			c-0.2,0.5-0.6,0.9-0.9,1.3c-2.1,2.4-4.3,4.8-6.4,7.2c-1,0.4-2.2-0.1-2.9-0.9c-0.7-0.8-1-1.9-1.2-3c-0.2-0.9-0.3-1.7-0.4-2.6
			c-0.1-1.3-0.1-2.8,0.6-3.9C481.4,247,480.5,246,482.6,245.5z"/>
		<path fill="#FFEBA0" d="M504.6,251.4c-1.4,0-2.7,0.1-4.1,0.1c-0.4,0-0.9,0-1.2,0.2c-0.4,0.2-0.7,0.7-1,1c-0.6,0.6-1.3,1-1.9,1.6
			c-2.2,1.9-2.8,5.2-2.6,8.1c0,0.3,0,0.5,0.2,0.8c0.2,0.3,0.5,0.4,0.8,0.5c3.3,1.3,7,1.5,10.5,0.7c1-0.2,2-0.6,2.7-1.3
			c0.7-0.8,1.1-1.8,1.3-2.8c0.4-1.6,0.6-3.3,0.7-5c0-0.7,0-1.4-0.3-2C508.9,251.6,506.5,251.4,504.6,251.4z"/>
		<path fill="#FFEBA0" d="M509.9,244.8c-0.7,1.7-1.2,3.5-1.3,5.3c0,0.4,0,0.8,0.1,1.1c0.4,1.1,1.7,1.5,2.9,1.5
			c2.2,0,4.5-0.6,6.4-1.7c0.5-0.3,0.9-0.6,1.2-1.1c0.2-0.4,0.3-0.8,0.3-1.3c0.2-1.4,0.4-2.8,0.5-4.2c0-0.2,0.1-0.5,0-0.7
			c-0.2-0.4-0.7-0.5-1.1-0.6c-2.5-0.5-5.2-0.9-7.4,0.2C509.4,244.4,512.2,244.5,509.9,244.8z"/>
		<path fill="#FFEBA0" d="M460.4,268.8c0-1,0-2,0-3c0-0.6,0-1.3,0.2-1.9c0.2-0.5,0.5-0.9,0.7-1.3c0.6-1.1,0.6-2.3,0.8-3.5
			c0.1-1.2,0.4-2.5,1.1-3.4c0.8-0.9,2.3-1.3,3.2-0.6c1.3,4.8,0.1,10.2-3,14.1c-0.3,0.4-0.7,0.8-1.2,1c-0.5,0.2-1.2,0.1-1.5-0.3
			C460.4,269.6,460.4,269.2,460.4,268.8z"/>
		<path fill="#FFEBA0" d="M468.7,267.4c0,0.5,0,1.1,0.3,1.6c0.3,0.7,0.9,1.2,1.5,1.6c2.6,1.8,6,2.7,9.2,2.4c1.5-0.2,3-0.6,3.9-1.8
			c0.9-1.2,0.8-2.9,0.7-4.4c-0.1-0.8-0.1-1.6-0.4-2.3c-0.6-1.8-2-3.1-3.1-4.5s-2-3.4-1.3-5.1c-3.1-0.4-6.2,1.3-8.1,3.8
			C469.4,261,468.6,264.2,468.7,267.4z"/>
		<path fill="#FFEBA0" d="M462,235.3c-0.2-0.1-0.2-0.3-0.1-0.5c0.2-3.1,0.3-6.2,0.5-9.4c0.9-0.6,2.2-0.1,2.9,0.7c0.7,0.8,0.9,2,1,3
			c0.1,1.4,0,2.8-0.6,4.1c-0.6,1.2-1.9,2.2-3.3,2.2C462.2,235.4,462.1,235.3,462,235.3z"/>
		<path fill="#FFEBA0" d="M465.9,205.5c0,0.4,0,0.7-0.1,1.1c-0.3,0.7-1.1,1-1.8,1c-0.7,0-1.4-0.3-2.1-0.6c-0.1-1.5,0-2.9,0.3-4.3
			c0.2-1.1,0.9-2.5,2-2.4c0.6,0,1.2,0.6,1.4,1.2s0.2,1.3,0.2,1.9C465.9,204,465.9,204.8,465.9,205.5z"/>
		<path fill="#FFEBA0" d="M487.9,258.5c-1,0.3-1.7,1.4-1.9,2.5s0.2,2.2,0.5,3.2c0.7,2.1,1.7,4.1,1.8,6.2c0,0.5,0,1,0.2,1.5
			c0.4,1,1.7,1.4,2.6,0.8c1.3-3.2,1.7-6.7,1.1-10.1c-0.2-1.1-0.5-2.3-1.3-3.2C490.2,258.7,488.9,258.2,487.9,258.5z"/>
		<path fill="#FFEBA0" d="M514,269.1c-0.1-0.3-0.3-0.7-0.5-0.9c-0.3-0.3-0.7-0.5-1.2-0.7c-3.5-1.3-7.4-1.1-11.2-0.9
			c-0.5,0-1.1,0.1-1.6,0.4c-0.5,0.3-0.7,0.9-1,1.4c-0.6,0.7-1.4,0.9-2,1.5c-1.6,1.5-0.9,4.1-1.2,6.3c3.1,1.7,6.8,1.4,10.2,1.2
			c2.2-0.2,4.5-0.4,6.2-1.6C513.9,274.2,514.8,271.4,514,269.1z"/>
		<path fill="#FFEBA0" d="M510.1,256c-0.4,0.5-0.4,1.2-0.5,1.8c-0.2,1.8-0.6,3.8,0.5,5.3c1.1,1.7,3.5,1.9,5.5,1.9
			c1.2,0,2.5,0,3.3-0.7c0.4-0.4,0.7-0.9,1-1.4c1.1-1.9,2.1-4,2.1-6.2c0-0.2,0-0.5-0.2-0.7c-0.2-0.2-0.5-0.3-0.7-0.3
			c-2.9-0.6-5.9-0.7-8.8-0.5C511.5,255.2,510.6,255.3,510.1,256z"/>
		<path fill="#FFEBA0" d="M515.4,284.2c2.3-1.1,4.1-3.3,4.4-5.8c0.1-0.9,0-1.8,0.1-2.7c0.1-1.2,0.4-2.5,0.9-3.6
			c0.2-0.5,0.5-1,0.3-1.4c-0.2-0.5-0.8-0.6-1.3-0.5c-0.5,0.1-0.9,0.5-1.3,0.8c-3.2,3-5.9,6.5-7.7,10.5c-0.5,1-0.9,2.2-0.6,3.3
			C511.9,285.2,513.8,285,515.4,284.2z"/>
		<path fill="#FFEBA0" d="M482.4,277.3c2.9,0,5.8,0.1,8.8,0.1c1.8,2.8,2.4,6.2,1.9,9.4c-0.1,0.7-0.3,1.4-0.8,1.9
			c-0.6,0.6-1.5,0.8-2.4,0.8c-2,0.2-4,0.2-6,0.1c-2-3.3-3-7.1-2.9-10.9c0-0.5,0.1-1,0.5-1.3C481.7,277.3,482.1,277.3,482.4,277.3z"
			/>
		<path fill="#FFEBA0" d="M476.7,277.1c0-1.5-0.1-3.2-1.3-4c-0.7-0.5-1.7-0.6-2.5-0.6c-1.8-0.1-3.5-0.2-5.3-0.3
			c-0.4,0-0.8,0-1.1,0.1c-0.5,0.2-0.8,0.8-1.1,1.3c-0.3,0.5-0.5,1-0.8,1.6c-0.4,0.7-0.7,1.5-0.8,2.3c-0.1,0.8,0.1,1.7,0.7,2.3
			c0.5,0.4,1.1,0.6,1.8,0.7c1.5,0.3,3,0.7,4.5,1c1.7,0.4,3.7,0.7,4.9-0.5C476.6,280,476.7,278.5,476.7,277.1z"/>
		<path fill="#FFEBA0" d="M463.5,284.2c2.5-1,5.6-0.4,7.5,1.6c0.3,0.3,0.6,0.7,0.8,1c1,1.7,0.4,4.2-1.2,5.3c-0.9,1-2.3,1.3-3.6,1.1
			s-2.5-0.8-3.6-1.5c-1.1-0.7-2.1-1.5-2.7-2.7C460.1,288,462.3,284.7,463.5,284.2z"/>
		<path fill="#FFEBA0" d="M472.6,287.3c-0.5,1.6-0.2,3.5,1.2,4.5c0.7,0.6,1.7,0.8,2.6,1c1.3,0.3,2.7,0.6,4,0.9
			c1-2.1,1.5-4.4,1.6-6.8c0-0.4,0-0.8-0.1-1.1c-0.1-0.3-0.3-0.6-0.6-0.8c-1.3-1.2-3.2-1.7-4.9-1.3
			C474.6,284.3,473.1,285.6,472.6,287.3z"/>
		<path fill="#FFEBA0" d="M503.9,290.7c0,0.4,0,0.9-0.3,1.3c-0.4,0.6-1.1,0.8-1.8,0.9c-1.9,0.3-4.2,0.1-5.1-1.6
			c-0.2-0.4-0.3-0.8-0.4-1.2c-0.6-2.7-0.9-5.4-0.8-8.1c1.8-0.6,3.6-1,5.5-1.1c0.8,0,1.6,0,2.2,0.5c0.8,0.7,0.8,1.8,0.8,2.9
			C504,286.3,503.9,288.5,503.9,290.7z"/>
		<path fill="#FFEBA0" d="M507.2,287.4c-0.9,2.8-1.3,5.7-1.2,8.6c0,0.4,0,0.7,0.2,1c0.2,0.3,0.5,0.5,0.8,0.7c2.5,1.7,5.2,2.9,8,3.8
			c1.5,0.5,3.4,0.7,4.6-0.4c0.5-0.5,0.8-1.2,1.1-1.8c0.5-1.5,0.8-3.2,0.8-4.8c0-0.9-0.1-1.8-0.7-2.5c-0.4-0.5-1.1-0.8-1.7-1
			c-1.4-0.6-2.8-1.1-4.2-1.7c-0.6-0.3-1.2-0.5-1.9-0.7C511.2,288,509.2,287.6,507.2,287.4z"/>
		<path fill="#FFEBA0" d="M482,295.6c0.7-1,2-1.6,3.2-1.9c2.1-0.6,4.3-0.8,6.5-0.7c0.4,0,0.7,0.1,1,0.2c0.6,0.3,0.8,1.1,0.9,1.7
			c0.6,2.8,1,5.7,1.2,8.6c0,0.2,0,0.5-0.1,0.7c-0.2,0.4-0.8,0.5-1.3,0.6c-1.9,0.2-3.9,0.3-5.8-0.3c-0.4-0.2-0.8-0.3-1.2-0.5
			c-1.2-0.6-2.4-1.1-3.5-1.7c-0.4-0.2-0.9-0.4-1.2-0.8c-0.4-0.6-0.5-1.3-0.5-2C481.3,298.2,481.2,296.7,482,295.6z"/>
		<path fill="#FFEBA0" d="M479.8,302.6c0.8-0.3,1.2-1.2,1.4-2c0.3-1.4-0.2-3-1.2-4.1c-1-1.1-2.4-1.8-3.9-2.1
			c-3.2-0.9-6.7-0.8-9.9,0.3c-0.6,2.1-0.5,4.8,1.3,6c0.6,0.4,1.2,0.6,1.9,0.7c3,0.7,6.1,1.2,9.2,1.3
			C478.9,302.8,479.4,302.8,479.8,302.6z"/>
		<path fill="#FFEBA0" d="M472.1,306.3c-0.2,1.6-1.2,3.1-2.7,3.9c-1.7,0.9-3.8,0.8-5.7,0.7c-0.8-0.1-1.8-0.2-2.3-0.9
			c-0.3-0.4-0.2-0.9-0.2-1.4c0.1-1.7,0.2-3.5,0.3-5.2c2.5-0.1,5-0.1,7.5-0.2c0.7,0,1.5,0,2.1,0.3C472,304.1,472.2,305.3,472.1,306.3
			z"/>
		<path fill="#FFEBA0" d="M485.6,310.2c0.4,0.1,0.8,0.1,1.2-0.1c0.6-0.3,0.8-1.1,0.8-1.7c0-1-0.2-1.9-0.5-2.9
			c-0.1-0.3-0.2-0.5-0.4-0.7c-0.2-0.2-0.5-0.2-0.8-0.3c-2.9-0.5-5.9-0.9-8.9-1.2c-0.5,0.8-1,1.6-1.2,2.4c-0.2,0.9,0,1.9,0.6,2.5
			c0.6,0.5,1.3,0.6,2.1,0.7c1,0.2,2,0.3,3,0.5C482.9,309.8,484.3,310,485.6,310.2z"/>
		<path fill="#FFEBA0" d="M505.8,308.7c0.5-2.4,0.7-4.8,0.6-7.2c-1.5-1-3.3-1.3-5-0.9c-1.1,2.6-1.5,5.4-1.1,8.2
			C502.1,309.3,504.2,309.8,505.8,308.7z"/>
		<path fill="#FFEBA0" d="M517.3,309.4c-1.5,0.8-3.3,0.7-4.8-0.1c-1.8-1-2.9-3.4-2.2-5.3c0.5-0.5,1.2-0.5,1.9-0.4
			c1.5,0.2,2.9,0.7,4,1.8C517.2,306.4,517.8,308,517.3,309.4z"/>
	</g>
</g>
<g id="Texto">
	<path id="SVGID_x5F_3_x5F_" fill="none" d="M687.1,233c0,115.8-147.4,208.8-329.3,208.8S28.6,344.8,28.6,229S176,23.2,357.9,23.2
		S687.1,117.1,687.1,233z"/>
	<text>	<textPath  xlink:href="#SVGID_x5F_3_x5F_" startOffset="6012.394%">
<tspan  fill="#E30613" font-family="'Swiss721BT-Black'" font-size="41px" letter-spacing="25">CASA DE ADORADORES</tspan>	</textPath>
</text>
	<path id="SVGID_x5F_4_x5F_" fill="none" d="M359.9,394.9c-155.8,0-290.3-74-290.3-168.2S202.1,55.1,357.9,55.1
		s287.5,74.1,287.5,168.3S515.6,394.9,359.9,394.9z"/>
	<text>	<textPath  xlink:href="#SVGID_x5F_4_x5F_" startOffset="51.3693%">
<tspan  fill="#E30613" font-family="'Swiss721BT-RomanExtended'" font-size="38px">Iglesia Cuadrangular</tspan>	</textPath>
</text>
</g>
</svg>
