<?xml version="1.0" encoding="utf-8"?>
<!-- Generator: Adobe Illustrator 22.0.0, SVG Export Plug-In . SVG Version: 6.00 Build 0)  -->
<svg version="1.1" id="Objects" xmlns="http://www.w3.org/2000/svg" xmlns:xlink="http://www.w3.org/1999/xlink" x="0px" y="0px"
	 viewBox="0 0 100 100" style="enable-background:new 0 0 100 100;" xml:space="preserve">
<style type="text/css">
	.st0{fill:none;stroke:#FFFFFF;stroke-width:3;stroke-miterlimit:10;}
</style>
<g>
	<g>
		<path class="st0" d="M89.5,31.5c-3.4-2.7-33.6-21.6-35-22.4c-1.1-0.6-3.1-1.6-4.5-1.6c-1.4,0-3.4,1-4.5,1.6
			c-1.3,0.7-31.6,19.7-35,22.4c-3.4,2.7-3.4,6.1-3.4,6.1v54.7h85.8V37.6h0C92.9,37.6,92.9,34.2,89.5,31.5z"/>
		<path class="st0" d="M92.9,37.6c-0.7,0-3.7,0-7.5,1.7C82,40.8,59.4,60.6,50,66.2c-9.4-5.6-32-25.4-35.4-26.9
			c-3.8-1.7-6.8-1.7-7.5-1.7c-0.1,0-0.1,0-0.1,0v0v54.9v0c0,0,0.1,0,0.1,0c0.7,0,85.2,0,85.8,0c0.1,0,0.1,0,0.1,0v0V37.6v0
			C93.1,37.5,93,37.5,92.9,37.6z"/>
		<g>
			<path class="st0" d="M6.9,92.5c0,0,0.4-3.6,3.8-6.2c3.4-2.7,33.6-21.6,35-22.4c1.1-0.6,3.1-1.6,4.5-1.6c1.4,0,3.4,1,4.5,1.6
				c1.3,0.7,31.6,19.7,35,22.4c3.4,2.7,3.4,6.3,3.4,6.3L6.9,92.5z"/>
		</g>
	</g>
</g>
</svg>
